<?xml version="1.0" encoding="utf-8"?>
<!-- Generator: Adobe Illustrator 27.5.0, SVG Export Plug-In . SVG Version: 6.00 Build 0)  -->
<svg version="1.1" xmlns="http://www.w3.org/2000/svg" xmlns:xlink="http://www.w3.org/1999/xlink" x="0px" y="0px"
	 viewBox="0 0 500 500" style="enable-background:new 0 0 500 500;" xml:space="preserve">
<g id="OBJECTS">
	<g>
		<path style="fill:#E59EA5;" d="M367.669,419.262c-28.838-8.372-86.515-7.442-86.515-7.442s-75.352-2.791-126.161,0.176
			c-50.809,2.967-69.195,25.871-55.241,37.034c13.954,11.163,130.237,17.675,209.31,11.163
			C388.135,453.682,396.508,427.635,367.669,419.262z"/>
		<path style="fill:#E83D3D;" d="M329.803,317.544l-165.308-0.59c0,0-3.07,61.987,30.419,110.826c0,0,31.637,4.857,55.351,5.465
			c27.21,0.698,57.211-5.465,57.211-5.465S336.068,390.227,329.803,317.544z"/>
		<path style="fill:#E59EA5;" d="M316.78,273.623c-9.768-6.611-42.025-25.402-92.561-17.628
			c-50.536,7.774-64.068,43.59-59.723,57.614c4.346,14.025,67.165,33.171,116.469,24.798c49.304-8.373,48.839-24.239,48.839-24.239
			C334.92,295.659,326.548,280.234,316.78,273.623z"/>
		<path style="fill:#F2D383;" d="M314.39,271.584c-9.187-6.218-39.528-23.892-87.06-16.581c-47.532,7.312-60.26,40.999-56.173,54.19
			c4.087,13.191,63.173,31.2,109.546,23.324s45.936-22.798,45.936-22.798C331.452,292.31,323.577,277.802,314.39,271.584z"/>
		<path style="fill:#D87987;" d="M404.724,194.258c6.082-7.011,9.538-15.83,9.687-24.719c-3.59,0.587-7.015,1.947-9.938,3.909
			c11.75-9.764,19.709-23.174,22.078-37.404c-3.722,2.246-7.444,4.491-11.166,6.737c6.753-6.829,10.106-16.278,8.998-25.36
			c-4.786,4.206-9.572,8.411-14.358,12.617c0.065-2.415,0.131-4.829,0.196-7.244c-5.868,1.773-11.736,3.546-17.605,5.319
			c-8.964-4.499-21.462-2.063-27.547,5.369c0.229-7.469,0.459-14.939,0.689-22.409c-4.999,0.432-9.843,2.224-13.731,5.081
			c0.799-7.278,1.598-14.557,2.397-21.835c-1.994,1.843-3.988,3.686-5.983,5.529c4.24-9.681,2.283-21.339-4.945-29.465
			c-1.616,2.588-3.233,5.176-4.849,7.765c0.347-8.857-1.39-17.775-5.064-25.999c-3.982,7.449-7.964,14.897-11.946,22.347
			c-3.94-4.946-6.724-10.631-8.121-16.582c-5.403,6.614-8.226,14.897-7.87,23.096c-0.202-3.111-3.963-5.613-7.333-4.878
			c-0.309,1.087-0.617,2.174-0.926,3.26c-0.242-1.1-0.958-2.1-2.113-2.562c-2.188,7.862-2.791,16.079-1.77,24.132
			c-1.04-2.142-2.079-4.284-3.119-6.427c-2.574,6.054-3.992,12.501-4.195,18.979c-0.538-0.976-1.644-1.801-2.891-2.14
			c-5.444-7.678-10.951-22.627-14.375-27.331c-0.578,4.486-1.156,8.972-1.734,13.458c-3.087-7.681-7.539-14.918-13.134-21.353
			c0.071,2.736,0.143,5.471,0.214,8.207c-4.956-10.217-14.388-18.615-25.801-22.977c1.121,2.989,2.242,5.978,3.363,8.968
			c-9.601-9.529-22.08-16.693-35.736-20.516c2.38,3.748,4.759,7.495,7.139,11.243c-8.131-7.636-18.907-12.965-30.436-15.049
			c4.789,10.326,9.577,20.651,14.366,30.976c-4.022-1.698-8.044-3.397-12.066-5.095c-0.091,5.503,1.401,11.02,4.29,15.872
			c-3.292-2.655-7.531-4.347-11.931-4.763c0.909,6.351,3.862,12.447,8.376,17.398c-3.393-2.975-8.451-4.409-13.114-3.56
			c2.114,7.949,6.918,15.304,13.611,20.839c-5.204-4.256-12.077-6.831-19.104-7.157c3.077,8.415,8.406,16.157,15.41,22.39
			c-4.228-2.123-8.606-4.291-13.422-4.748c-4.817-0.457-10.231,1.244-12.394,5.138c-0.761,1.371-1.075,2.919-1.084,4.451
			c-0.029,4.977,2.903,9.214,6.821,12.894c-1.107-0.539-2.277-0.959-3.528-1.207c-4.772-0.945-10.748,1.983-10.504,6.369
			c0.14,2.52,2.174,4.585,4.095,6.425c0.413,0.396,0.826,0.791,1.24,1.187c-1.906-0.935-3.851-1.807-5.84-2.594
			c0.304,2.415,1.416,4.725,3.096,6.629c-7.704-5.564-16.459-9.952-25.786-12.892c0.265,3.228,2.032,6.335,4.789,8.418
			c-11.353-4.373-23.685-6.681-36.036-6.743c2.676,1.87,5.353,3.74,8.029,5.611c-9.39-4.147-20.44-5.172-30.575-2.836
			c3.866,3.559,7.732,7.117,11.598,10.676c-2.44-0.233-4.881-0.466-7.321-0.699c2.954,5.699,7.131,10.884,12.233,15.186
			c-3.114-0.521-6.228-1.041-9.343-1.562c3.872,6.109,9.279,11.427,15.7,15.443c-5.562-1.321-11.124-2.642-16.686-3.962
			c4.51,7.657,10.201,14.75,16.86,21.014c-4.684-0.727-9.368-1.453-14.052-2.18c5.279,6.589,12.037,12.217,19.749,16.448
			c-4.63-1.857-9.688-2.845-14.757-2.883c6.365,7.253,14.775,13.045,24.224,16.681c-4.301-0.495-8.603-0.991-12.905-1.486
			c4.683,7.011,12.429,12.32,21.192,14.524c-4.028,0.192-8.056,0.384-12.084,0.577c5.684,8.799,15.266,15.497,26.154,18.284
			c-4.706-1.157-9.412-2.315-14.118-3.472c7.312,10.412,18.757,18.38,31.711,22.349c12.866,9.972,27.663,17.925,43.53,23.385
			c5.181,1.783,7.492-4.663,12.157-7.361c1.763-1.019,9.81-3.465,10.698-5.116c11.677,13.246,95.308,11.768,96.282,5.582
			c5.983-37.983,52.878-29.352,82.134-57.085c8.46-8.019,15.992-16.828,22.416-26.25c-3.006,0.524-6.012,1.048-9.018,1.572
			c10.592-7.533,18.833-17.708,23.555-29.081c-3.407,1.401-6.813,2.802-10.22,4.204c5.493-4.922,9.627-11.06,11.931-17.717
			C417.014,188.815,410.869,191.537,404.724,194.258z"/>
		<path style="fill:#F2D383;" d="M157.459,253.709c0.322,2.464,0.643,4.927,0.965,7.391c-4.057-5.164-9.772-9.005-16.087-10.81
			c0.632,2.35,1.265,4.699,1.897,7.049c-3.397-3.823-8.031-6.529-13.029-7.609c0.472,1.773,0.944,3.546,1.416,5.319
			c-4.369-4.132-10.188-6.699-16.186-7.139c0.628,1.876,1.257,3.752,1.885,5.628c-7.475-3.706-16.514-4.116-24.294-1.101
			c-8.885,0.322-17.736,1.572-26.363,3.724c2.964,9.122,9.665,16.967,18.212,21.32c-2.789-0.543-5.578-1.086-8.367-1.629
			c4.027,6.569,10.997,11.256,18.6,12.508c-2.222,0.23-4.443,0.459-6.665,0.689c5.958,6.244,13.702,10.765,22.068,12.885
			c-2.044,0.73-4.088,1.46-6.132,2.19c8.424,5.642,18.749,8.39,28.864,7.682c-2.164,1.171-4.328,2.342-6.492,3.513
			c7.018,2.899,14.957,3.518,22.34,1.742c-1.621,0.944-3.241,1.888-4.862,2.832c8.33,2.481,18.613-0.58,26.225-4.777
			c-1.086,0.505,0.814,1.197,1.833,1.826c1.019,0.629-0.277,3.613,0.905,3.417c4.331-0.721,8.748-1.47,12.63-3.52
			c3.882-2.05,7.209-5.664,7.743-10.023c1.133-9.245-7.768-20.849-12.358-28.539c-3.068-5.141-6.632-9.898-10.901-14.112
			C169.571,262.452,157.65,255.172,157.459,253.709z"/>
		<path style="fill:#F2D383;" d="M336.902,326.897c-2.685-1.096-5.371-2.193-8.056-3.289c6.47,1.384,13.278,1.152,19.639-0.667
			c-2.804-1.185-5.609-2.37-8.413-3.555c6.391,1.342,13.205,0.586,19.145-2.126c-1.903-0.786-3.806-1.572-5.708-2.359
			c5.195,0.383,10.456-0.156,15.466-1.583c-1.526-0.754-3.051-1.508-4.577-2.263c8.379-0.415,16.628-3.198,23.546-7.944
			c-1.544-0.455-3.089-0.909-4.633-1.364c5.983-1.39,11.571-4.437,15.98-8.713c-1.747-0.058-3.493-0.116-5.24-0.174
			c10.862-7.367,19.805-17.538,25.722-29.254c-11.434-5.295-24.736-6.44-36.906-3.175c1.417-1.977,2.834-3.953,4.252-5.93
			c-6.298,0.422-12.539,1.702-18.494,3.794c1.918-1.419,3.835-2.837,5.753-4.256c-7.457-1.045-15.258,0.554-21.702,4.449
			c1.18-2.54,3.464-4.543,6.137-5.381c-9.307-0.002-18.539,4.147-24.718,11.107c0.671-1.257,1.341-2.514,2.012-3.771
			c-4.675,1.462-8.951,4.179-12.26,7.79c0.366-1.945,0.014-4.146,0.014-4.146s-6.79,4.593-7.301,6.505
			c-0.51,1.912-0.882,3.974-2.204,5.446c0.078-0.632,0.157-1.263,0.235-1.895c-4.393-0.385-7.655,3.837-9.937,7.611
			c-3.47,5.74-6.848,11.745-7.865,18.375c-1.157,7.545-2.786,11.668,4.478,15.225C310.654,319.952,326.537,327.14,336.902,326.897z"
			/>
		<g>
			<g>
				<path style="fill:#F2D383;" d="M275.745,78.821c0,0-6.262,11.623-11.125,35.239c-4.864,23.616-7.191,38.689-5.977,51.873
					c1.214,13.183,2.915,28.472,2.915,28.472l-3.693,0.242c0,0-3.892-27.404-1.533-45.316c2.359-17.911,4.898-31.733,8.812-46.561
					c3.913-14.828,8.343-25.11,8.343-25.11L275.745,78.821z"/>
				<path style="fill:#F2D383;" d="M267.769,101.55c0,0,9.645-4.603,17.432-15.584s10.694-27.183,12.073-38.748
					c1.379-11.564-2.375-10.926-6.373-8.7c-3.999,2.226-16.91,9.573-25.493,25.711c-8.583,16.138-7.795,26.819-5.418,32.465
					C262.367,102.341,267.769,101.55,267.769,101.55z"/>
				<path style="fill:#F2D383;" d="M258.994,134.716l-3.567-5.83c0,0,0.857-5.553-0.969-14.77
					c-1.826-9.216-11.189-19.596-16.008-25.214c-4.819-5.617-8.54-7.816-11.256-8.641c-2.715-0.825-4.249,14.37-1.784,27.34
					c2.465,12.97,10.699,22.77,16.008,25.214c5.308,2.444,11.535-1.062,11.535-1.062l5.306,7.723L258.994,134.716z"/>
				<path style="fill:#F2D383;" d="M261.377,129.804l6.472-5.093c0,0,1.989-10.252,8.522-15.741
					c6.533-5.489,19.32-6.765,26.643-6.853c7.324-0.088,8.391,0.889,7.84,4.459c-0.551,3.57-5.263,9.229-11.969,14.397
					c-9.219,7.105-27.317,11.216-29.297,5.63l-9.28,7.502L261.377,129.804z"/>
			</g>
			<path style="fill:#E83D3D;" d="M266.795,97.339c0,0,8.282-24.713,14.024-35.604s13.987-22.208,11.698-20.531
				c-2.289,1.677-11.421,16.106-16.125,25.533C271.688,76.164,265.453,95.507,266.795,97.339z"/>
			<path style="fill:#E83D3D;" d="M251.064,128.212c0,0-6.975-23.214-19.135-38.801c-1.119-1.434-2.281-2.803-3.486-4.084
				c0,0,9.847,17.765,12.56,23.869C243.716,115.3,249.171,129.95,251.064,128.212z"/>
			<path style="fill:#E83D3D;" d="M287.751,111.539c-13.002,5.303-17.613,11.495-17.613,11.495s7.082-3.78,13.766-7.622
				c6.685-3.841,24.234-9.661,24.234-9.661S300.754,106.236,287.751,111.539z"/>
		</g>
		<g>
			<path style="fill:#E83D3D;" d="M348.838,96.305c0.672-3.284-3.671-4.926-3.671-4.926s2.914-3.177,2.156-6.603
				c-0.758-3.425-3.706-5.739-6.584-6.428c-2.878-0.689-4.078-0.231-4.078-0.231s1.608-5.155-2.735-6.798
				c-4.343-1.643-6.515-0.125-8.069,1.569c-1.554,1.695-2.896,3.584-4.504,8.738c-1.608,5.155,18.234,17.112,21.836,15.736
				C343.188,97.363,348.167,99.589,348.838,96.305z"/>
			<path style="fill:#C62A2A;" d="M335.581,100.98c0,0,7.786,1.291,10.859-2.91c3.073-4.201-0.176-4.061-2.647-4.768
				c-2.472-0.707-4.484-0.213-4.484-0.213s4.662-5.084,1.944-6.797c-2.719-1.713-6.443-3.18-9.728,0.827
				c0,0-0.563-8.316-4.605-12.413c-4.042-4.097-5.878-4.221-8.192-1.273c-2.314,2.948-3.181,11.122-2.264,18.202
				c0.916,7.08,6.388,11.318,9.054,11.813C328.183,103.945,335.581,100.98,335.581,100.98z"/>
			<path style="fill:#E83D3D;" d="M334.059,102.64c0,0,7.786,1.291,10.859-2.91c3.073-4.201-0.176-4.061-2.647-4.768
				c-2.472-0.707-4.484-0.213-4.484-0.213s4.662-5.083,1.944-6.797c-2.719-1.713-6.443-3.179-9.728,0.827
				c0,0-0.563-8.316-4.605-12.413c-4.042-4.097-5.878-4.221-8.192-1.273c-2.314,2.948-3.181,11.122-2.264,18.202
				c0.916,7.08,6.388,11.319,9.054,11.814C326.661,105.604,334.059,102.64,334.059,102.64z"/>
			<path style="fill:#F2D383;" d="M295.674,177.816c2.036-8.501,6.914-31.266,13.346-46.604
				c6.432-15.338,12.451-22.292,12.451-22.292l-2.579-1.852c0,0-6.132,11.038-10.541,20.525c-4.41,9.487-7.774,22.159-11.632,33.644
				c-3.858,11.485-9.935,37.393-9.935,37.393l3.736,0.953C290.52,199.582,293.638,186.317,295.674,177.816z"/>
			<path style="fill:#F2D383;" d="M332.771,101.068c-3.707-1.06-8.492,1.181-8.492,1.181s-2.912-6.18-6.336-10.1
				c-3.424-3.92-3.566-2.49-4.502-0.619c-0.936,1.871-0.955,6.144,1.286,10.929c2.241,4.785,6.195,6.852,6.195,6.852
				s5.067-0.422,11.23-3.74C338.314,102.252,336.478,102.128,332.771,101.068z"/>
		</g>
		<g>
			<path style="fill:#F2D383;" d="M211.482,136.7c0,0,1.425-19.257-0.631-27.636s-3.011-10.879-3.011-10.879
				s9.557-7.47,6.252-18.618c-3.304-11.148-10.264-2.379-10.264-2.379s0.958-10.486-4.603-15.044
				c-5.56-4.558-8.428,0.929-8.428,0.929l-0.614,5.39c0,0-5.658-6.813-11.637-1.473c-5.979,5.339,4.799,13.059,4.799,13.059
				l7.373,7.303c0,0-6.002-1.716-5.392,5.879c0.611,7.595,19.034,9.339,19.034,9.339s2.964,3.259,3.378,12.839
				c0.414,9.58,0.381,28.529,0.381,28.529L211.482,136.7z"/>
			<path style="fill:#E83D3D;" d="M192.853,71.453c0,0,8.227,20.533,12.758,27.394C205.611,98.847,199.76,81.034,192.853,71.453z"/>
		</g>
		<g>
			<path style="fill:#E83D3D;" d="M251.767,43.243c-3.164-1.005-8.559,0.557-8.9,2.173c0,0-1.717-3.063-5.477-2.844
				s-7.862,2.055-8.698,7.618c0,0-2.568-2.23-6.483,0.32c-3.915,2.55-3.117,6.77-3.117,6.77l1.426,6.041c0,0,7.859,4.36,14.41,3.717
				c6.551-0.643,17.667-10.115,18.827-15.61C253.958,50.458,254.931,44.248,251.767,43.243z"/>
			<path style="fill:#F2D383;" d="M252.299,66.315c-7.981,1.017-13.087,6.017-13.087,6.017s-6.602-0.718-10.958,0.726
				c-4.357,1.444-8.322,2.633-8.322,2.633s8.505,4.496,12.334,3.954c3.829-0.543,7.097-3.229,7.097-3.229s6.347,0.327,12.064-1.168
				c5.718-1.494,8.562-6.972,10.606-10.254C264.076,61.71,260.28,65.298,252.299,66.315z"/>
			<path style="fill:#C62A2A;" d="M253.625,46.261c-3.488-1.074-9.09,7.873-9.09,7.873s-8.25-4.105-10.804-1.605
				c-2.553,2.5-2.693,9.561-2.693,9.561s-5.714-4.92-11.364-3.749c-5.65,1.171-2.403,6.583,0.029,9.46
				c2.432,2.877,10.189,4.514,14.137,5.01c3.947,0.495,11.777-4.605,11.777-4.605s4.902-4.03,8.325-9.048
				C257.364,54.141,257.112,47.335,253.625,46.261z"/>
			<path style="fill:#E83D3D;" d="M254.112,48.127c-3.488-1.074-9.09,7.873-9.09,7.873s-8.25-4.105-10.804-1.605
				c-2.553,2.5-2.693,9.561-2.693,9.561s-5.714-4.92-11.364-3.749c-5.65,1.171-2.403,6.583,0.029,9.46
				c2.432,2.877,10.189,4.514,14.137,5.01c3.947,0.495,11.777-4.605,11.777-4.605s4.902-4.03,8.325-9.048
				C257.852,56.007,257.6,49.201,254.112,48.127z"/>
			<path style="fill:#F2D383;" d="M250.693,113.922c-2.935-16.489-9.951-39.241-9.951-39.241l-2.467,0.492
				c0,0,7.389,24.182,10.41,38.663c3.021,14.481,3.5,42.607,3.5,42.607l3.369,0.036
				C255.554,156.478,253.628,130.411,250.693,113.922z"/>
		</g>
		<g>
			<path style="fill:#F2D383;" d="M342.329,182.346c0,0,23.565-3.834,31.477-3.251c0,0,8.964-8.164,13.897-8.148
				c4.934,0.016,4.5,4.716,4.5,4.716s13.647-2.796,20.756,1.184c7.109,3.979,24.421,5.431,23.016,7.94
				c-1.404,2.509-11.772,13.182-23.831,14.121c-12.059,0.939-14.468-2.606-14.468-2.606s1.239,5.636-5.234,6.407
				c-6.473,0.771-19.052-10.115-20.426-17.474l0.335-2.559c0,0-23.416,0.623-33.016,4.037L342.329,182.346z"/>
			<path style="fill:#E83D3D;" d="M376.031,181.988c0,0,21.275-0.723,33.836,1.365c12.561,2.088,21.827,1.234,21.827,1.234
				s-11.323,3.548-24.118,1.878C394.781,184.795,376.031,181.988,376.031,181.988z"/>
		</g>
		<g>
			<path style="fill:#F2D383;" d="M398.886,224.771c2.725-6.409,5.365-9.245,5.365-9.245l-0.837-0.973c0,0-3.471,5.018-5.458,8.873
				c-1.988,3.855-5.169,14.719-5.169,14.719l2.226-0.561C395.013,237.585,396.161,231.18,398.886,224.771z"/>
			<path style="fill:#E83D3D;" d="M423.97,214.7c-0.731-2.133-5.14-3.898-5.806-3.667c0.731-0.362,6.799-3.848,5.274-7.051
				c-1.677-3.523-4.784-2.543-7.196-1.935c-2.412,0.608-3.894,1.771-3.894,1.771s1.38-6.267-0.896-7.469
				c-2.276-1.202-4.038-0.363-6.214,1.961c-2.176,2.324-1.054,6.777-0.028,9.28c1.026,2.504,5.303,6.95,5.303,6.95
				s4.37,4.028,7.852,5.321C421.848,221.154,424.717,216.879,423.97,214.7z"/>
			<path style="fill:#E83D3D;" d="M439.447,237.736c1.592-2.572-3.157-6.764-3.157-6.764s3.143,0.508,5.698-0.814
				c2.554-1.322,3.27-3.512,1.916-7.096c-1.353-3.584-9.498-0.243-9.498-0.243s2.042-2.977,2.451-5.868
				c0.409-2.892-2.073-6.193-6.053-3.832c-3.98,2.361-3.828,10.851-3.828,10.851l2.455,7.07c0,0,1.92,5.842,3.759,6.71
				C435.03,238.617,437.854,240.308,439.447,237.736z"/>
			<path style="fill:#E83D3D;" d="M436.908,262.771c2.176-2.324-2.29-8.302-2.29-8.302s2.277,1.991,4.272,1.291
				c1.994-0.7,3.983-3.766,2.167-7.057c-1.816-3.291-6.035-1.241-6.035-1.241s2.22-3.717,0.777-6.312
				c-1.443-2.596-5.436-3.562-8.261-0.68c-2.825,2.882-0.359,6.404-0.359,6.404s0.703,3.572,0.614,5.567
				c-0.089,1.995,1.128,7.608,2.385,9.462C431.435,263.756,434.732,265.095,436.908,262.771z"/>
			<path style="fill:#F2D383;" d="M430.517,251.929c0.812-2.686,0.801-5.716-0.789-6.471c-1.754-0.833-5.957,1.132-6.662,4.382
				c-0.705,3.25,4.44,4.804,4.44,4.804S429.705,254.615,430.517,251.929z"/>
			<path style="fill:#F2D383;" d="M427.978,224.318c0,0-3.189,0.343-5.386,2.966c-2.197,2.624-1.839,3.929-0.451,5.203
				c1.388,1.274,6.965,1.145,8.895,0.306C431.036,232.793,431.457,226.561,427.978,224.318z"/>
			<path style="fill:#F2D383;" d="M411.675,215.234c0.32-2.646-5.49-7.692-6.465-7.644c-0.974,0.048-4.811,7.527-1.421,9.237
				C407.18,218.537,411.675,215.234,411.675,215.234z"/>
			<path style="fill:#F2D383;" d="M424.648,248.452c0,0-9.103-1.622-14.823-3.911c-5.72-2.29-12.245-7.731-12.245-7.731
				l-2.595,0.664c0,0,5.547,4.704,13.547,8.187c8,3.484,15.474,4.14,15.474,4.14L424.648,248.452z"/>
			<path style="fill:#F2D383;" d="M320.895,278.562c6.811-5.071,21.273-13.451,30.079-18.433
				c8.807-4.982,29.482-15.323,37.086-18.818c7.603-3.495,34.039-10.552,34.039-10.552l-0.189-1.531c0,0-25.832,7.103-32.277,9.714
				c-6.445,2.611-22.995,10.531-33.796,16.213c-10.801,5.682-19.051,10.523-30.313,17.506
				c-11.262,6.982-21.547,15.493-21.547,15.493l1.397,2.41C305.373,290.564,314.083,283.633,320.895,278.562z"/>
		</g>
		<g>
			<path style="fill:#F2D383;" d="M172.618,159.314c0,0-10.598-8.815-16.798-13.474c0,0-1.138-6.414-8.807-14.053
				c-7.669-7.639-17.528-12.572-27.942-14.015c-10.415-1.443-18.182-1.878-22.295-3.952c-4.113-2.074,6.786,16.477,12.991,24.006
				s15.001,15.842,22.829,18.415c7.828,2.574,22.781-6.46,22.781-6.46l19.22,14.539L172.618,159.314z"/>
			<g>
				<path style="fill:#E83D3D;" d="M101.281,117.238c-1.991-1.215-3.258-2.033-3.258-2.033
					C98.943,115.923,100.05,116.594,101.281,117.238z"/>
				<path style="fill:#E83D3D;" d="M130.923,128.553c-9.039-4.523-21.974-7.308-29.642-11.316
					c4.272,2.606,11.899,7.049,17.662,9.244c8.449,3.217,10.846,3.631,16.901,7.452c6.056,3.82,17.569,12.121,17.569,12.121
					S141.412,133.802,130.923,128.553z"/>
			</g>
		</g>
		<g>
			<path style="fill:#E83D3D;" d="M175.205,81.231c-3.841-3.216-9.817-5.173-11.343-4.932c-1.527,0.241-2.737,5.74-2.737,5.74
				s-1.375-8.888-5.822-9.931c-4.447-1.043-17.13,3.596-20.077,6.215c-2.947,2.619-5.352,5.1-6.297,7.647
				c-0.945,2.547,3.984,6.643,3.984,6.643s-3.397-2.029-6.549,0.352c-3.151,2.382-4.769,7.984-5.443,10.462
				c-0.674,2.479-1.725,2.888-0.33,4.412c1.394,1.524,6.789,1.174,10.218,2.186c3.429,1.011,13.072,3.775,19.044,3.424
				c5.972-0.351,13.697-6.338,15.252-9.328c1.555-2.989,2.702-6.453,2.702-6.453s6.738-7.614,8.568-8.941
				C178.203,87.401,179.046,84.447,175.205,81.231z"/>
			<g>
				<path style="fill:#C62A2A;" d="M132.912,92.613c0,0,3.833,2.346,6.146,3.605c1.857,1.01,7.251,5.476,9.367,7.425
					c-1.103-1.283-3.115-3.659-5.211-5.556C140.031,95.205,132.912,92.613,132.912,92.613z"/>
				<path style="fill:#C62A2A;" d="M149.291,104.538c-0.022-0.086-0.347-0.415-0.867-0.895
					C148.996,104.31,149.329,104.686,149.291,104.538z"/>
			</g>
			<path style="fill:#F2D383;" d="M159.22,115.128c0,0,8.844-6.702,11.686-10.882c2.842-4.179,1.576-9.776,3.096-13.478
				c0,0-7.155,2.525-8.88,5.413c-1.725,2.888-5.242,8.969-5.242,8.969s-0.931-7.701-4.501-10.986s-6.526-5.281-6.526-5.281
				s-2.498,6.69-2.39,9.981c0.108,3.291,4.327,9.154,4.327,9.154s-4.993-2.637-9.099-2.324c-4.105,0.313-9.632,2.428-12.142,3.349
				c-2.509,0.921-3.799,0.958-3.799,0.958s4.651,1.28,6.656,2.362c2.004,1.082,4.586,2.74,8.253,3.547
				C144.326,116.718,154.507,117.037,159.22,115.128z"/>
			<path style="fill:#F2D383;" d="M179.679,165.378c-3.277-9.563-10.373-29.129-13.952-37.605s-6.134-13.46-6.134-13.46l-1.56,0.682
				c0,0,3.917,7.526,5.895,12.51c1.978,4.984,11.733,30.517,13.748,37.368c2.016,6.851,9.155,31.167,9.155,31.167l1.73-0.58
				C188.56,195.459,182.955,174.94,179.679,165.378z"/>
			<path style="fill:#C62A2A;" d="M161.124,82.038c0,0,1.387,6.733,1.032,9.586c-0.355,2.853-1.889,12.604-1.889,12.604
				s3.229-10.332,2.935-13.328C162.906,87.904,161.124,82.038,161.124,82.038z"/>
		</g>
		<g>
			<path style="fill:#C62A2A;" d="M402.31,110.838c-4.971-2.47-17.136,0.878-17.136,0.878s6.359-2.168,7.962-3.194
				c1.604-1.026,7.263-5.062,2.953-6.714c-4.31-1.652-16.826,3.602-16.826,3.602s4.251-3.437,5.972-6.993
				c1.722-3.555,2.688-7.041-1.42-7.775c-4.108-0.734-11.047,9.744-11.047,9.744s-0.008-14.054-1.104-16.412
				c-1.096-2.359-3.249-6.025-6.248-1.707c-2.998,4.317-0.965,16.193-0.965,16.193s-7.105-14.804-8.622-16.011
				c-1.517-1.207-2.905,3.43-1.499,8.512c1.406,5.082,7.401,14.836,7.401,14.836l14.187,12.862c0,0,9.462,1.001,14.909,0.381
				c5.448-0.619,10.763-1.403,13.02-2.958S407.282,113.308,402.31,110.838z"/>
			<path style="fill:#F2D383;" d="M360.573,104.031c-0.716,1.12-0.98,13.501,0.249,16.023c1.228,2.522,1.858,3.635,6.877,2.82
				c5.02-0.814,10.943-4.523,10.943-4.523C376.304,110.778,361.289,102.911,360.573,104.031z"/>
			<path style="fill:#F2D383;" d="M364.773,122.266c0,0-5.022,6.495-11.214,15.558c-6.191,9.063-18.114,27.087-22.142,35.481
				c-4.027,8.394-10.813,23.075-10.813,23.075l-2.567-1.169c0,0,9.248-20.998,16.187-31.476
				c6.939-10.478,18.146-27.382,21.634-32.096c3.489-4.714,7.165-11.202,7.165-11.202L364.773,122.266z"/>
		</g>
		<g>
			<path style="fill:#E83D3D;" d="M106.44,156.214c0,0-2.027-7.82-8.11-8.979c-6.082-1.159-11.006,6.082-11.006,6.082
				s-5.793-2.027-8.979,1.159c-3.186,3.186-3.476,6.082-3.476,6.082s-6.082,2.317-6.661,6.661c-0.579,4.344,4.924,8.11,8.399,11.296
				C80.084,181.702,106.44,156.214,106.44,156.214z"/>
			<path style="fill:#C62A2A;" d="M106.553,148.62c-6.082-0.579-8.11,9.268-8.11,9.268s-3.476-4.055-8.978-1.448
				c-5.503,2.607-3.186,9.558-3.186,9.558s-6.662-1.448-12.744,2.027c-6.082,3.476-4.924,4.924-4.055,8.11
				c0.869,3.186,11.006,8.979,17.668,9.847c6.662,0.869,10.716,0.29,10.716,0.29l9.268-6.951c0,0,3.476-4.634,4.345-14.192
				C112.345,155.571,112.635,149.199,106.553,148.62z"/>
			<path style="fill:#E83D3D;" d="M107.309,150.132c-6.082-0.579-8.11,9.268-8.11,9.268s-3.475-4.055-8.978-1.448
				c-5.503,2.607-3.186,9.558-3.186,9.558s-6.662-1.448-12.744,2.027c-6.082,3.476-4.924,4.924-4.055,8.11
				c0.869,3.186,11.006,8.979,17.668,9.847c6.662,0.869,10.716,0.29,10.716,0.29l9.268-6.951c0,0,3.476-4.634,4.345-14.192
				C113.102,157.083,113.391,150.711,107.309,150.132z"/>
			<path style="fill:#F2D383;" d="M165.814,266.564c0,0-19.116-31.57-26.936-43.445c-7.82-11.875-18.826-23.46-24.908-29.832
				l-4.924-5.213c0,0-0.579-6.372-1.159-7.241c0,0-7.82,3.475-11.006,6.951c0,0,4.055,2.027,9.268,2.027
				c0,0,2.607,2.896,8.979,9.268s17.088,19.985,23.17,29.253c6.082,9.268,24.619,40.838,24.619,40.838L165.814,266.564z"/>
		</g>
		<path style="fill:#E83D3D;" d="M362.171,126.878c-5.805-5.595-14.327,0.551-14.327,0.551s-2.955-14.095-9.535-12.988
			c-6.58,1.107-2.784,27.015,0.361,27.718C341.815,142.862,367.977,132.473,362.171,126.878z"/>
		<g>
			<path style="fill:#F2D383;" d="M377.098,167.778c0,0-21.512,11.422-32.728,15.086c-11.215,3.664-26.302,6.047-26.302,6.047
				l-2.417,4.555c0,0,20.393-3.001,30.395-6.966c10.002-3.965,33.029-16.3,33.029-16.3L377.098,167.778z"/>
			<path style="fill:#F2D383;" d="M438.99,137.69c-3.497-4.087-38.759-3.481-50.871,6.404
				c-12.112,9.884-12.986,26.418-12.986,26.418c6.537,7.417,26.012,0.323,34.571-4.321
				C418.263,161.546,442.487,141.777,438.99,137.69z"/>
			<path style="fill:#E83D3D;" d="M436.489,138.681c0,0-15.693,2.233-26.903,8.476c-11.21,6.242-29.013,14.395-30.289,20.844
				c0,0,23.472-16.734,37.111-22.376C430.046,139.984,436.489,138.681,436.489,138.681z"/>
		</g>
		<g>
			<path style="fill:#F2D383;" d="M368.976,149.986c0,0,6.891-9.188,14.93-6.891c8.039,2.297,8.039,12.633,2.871,18.375
				c-5.168,5.742-7.465,6.316-7.465,6.316s10.91-0.574,12.059,10.336c1.149,10.91-6.316,13.781-12.633,12.633
				c-6.316-1.148-9.762-8.039-9.762-8.039s0.574,7.465-8.039,10.91c-8.613,3.445-14.93-1.723-14.93-7.465
				c0-5.742,5.742-13.207,5.742-13.207s-15.504,4.594-17.801-4.594c-2.297-9.188,4.188-15.224,8.613-15.504
				c2.954-0.187,10.91,4.594,10.91,4.594s-11.484-14.356-2.297-19.524C360.362,132.759,368.976,149.986,368.976,149.986z"/>
			<path style="fill:#FFFFFF;" d="M367.434,146.903c0,0,6.891-9.188,14.93-6.891c8.039,2.297,8.039,12.633,2.871,18.375
				c-5.168,5.742-7.465,6.316-7.465,6.316s10.91-0.574,12.059,10.336c1.148,10.91-6.316,13.781-12.633,12.633
				c-6.316-1.148-9.762-8.039-9.762-8.039s0.574,7.465-8.039,10.91c-8.613,3.445-14.93-1.723-14.93-7.465
				c0-5.742,5.742-13.207,5.742-13.207s-15.504,4.594-17.801-4.594c-2.297-9.188,4.188-15.224,8.613-15.504
				c2.954-0.187,10.91,4.594,10.91,4.594s-11.485-14.356-2.297-19.524C358.821,129.676,367.434,146.903,367.434,146.903z"/>
			<path style="fill:#F2D383;" d="M369.75,156.715c-0.337-0.42-0.731-0.794-1.141-1.143c-0.23-0.195-0.76-0.144-1.011-0.073
				c-0.212,0.06-0.409,0.151-0.597,0.257c-1.859-1.242-4.26-1.275-6.095,0.072c-2.13,1.564-3.172,4.64-2.495,7.194
				c0.302,1.139,0.836,2.207,1.759,2.97c0.909,0.752,1.944,1.256,3.123,1.429c2.615,0.384,5.373-0.831,6.844-3.032
				c0.936-1.402,1.365-3.062,1.025-4.728C370.942,158.586,370.439,157.572,369.75,156.715z M364.955,160.83
				c0.118-0.127,0.176-0.159,0.182-0.146c-0.029,0.029-0.058,0.058-0.088,0.085c-0.011,0.01-0.024,0.021-0.037,0.031
				C364.998,160.808,364.978,160.818,364.955,160.83z M361.856,160.231c0.002-0.036,0.007-0.071,0.011-0.107
				c0.004-0.015,0.008-0.03,0.012-0.045c-0.009,0.119-0.018,0.182-0.025,0.209C361.855,160.264,361.855,160.244,361.856,160.231z"/>
		</g>
		<g>
			<path style="fill:#E83D3D;" d="M345.551,142.124c0,0,5.903-15.708-5.049-17.494c0,0-7.995-4.951-11.861-5.582
				c0,0-8.693-6.484-15.998-6.303c-7.305,0.181-18.148-2.274-21.27,0.647c0,0-7.622-1.929-11.943,8.342
				c0,0-12.657-7.553-13.103-0.765l-0.806,13.606c0,0-1.277-1.656-3.973,2.707c-2.695,4.362,4.592,17.273,5.336,20.824
				c0.743,3.551,5.57,6.397,7.058,13.5c1.487,7.103,0.378,22.015,15.503,30.656c15.126,8.641,36.882-4.035,42.065-15.538
				c5.183-11.504,7.958-23.177,12.477-26.556c4.52-3.379,9.385-9.223,9.385-9.223L345.551,142.124z"/>
			<path style="fill:#E59EA5;" d="M344.837,142.357c0,0,3.291-12.305-7.341-14.039c0,0-6.69-6.228-10.442-6.84
				c0,0-7.213-6.955-14.297-6.826c-7.084,0.129-17.615-2.231-20.627,0.489c0,0-7.403-1.85-11.537,7.749
				c0,0-12.319-7.146-12.713-0.789l5.798,19.567c0,0-7.519-5.079-10.11-1.007c-2.59,4.072,4.316,12.904,5.058,16.235
				c0.74,3.331,5.438,6.024,6.92,12.687c1.482,6.662,0.488,20.627,15.206,28.806c14.719,8.179,31.858-6.362,36.822-17.11
				c4.964-10.748,10.246-19.518,14.611-22.659c4.365-3.141,10.287-7.954,10.287-7.954L344.837,142.357z"/>
			<path style="fill:#E83D3D;" d="M275.684,142.154c0,0,7.544,0.99,14.715,7.216c7.171,6.226,10.182,6.958,12.869,15.583
				c2.687,8.625,8.231,18.92,8.088,22.749c0,0-2.352-13.627-4.718-19.792c-2.366-6.165-3.793-12.176-8.025-15.756
				s-10.536-7.738-14.022-9.992C281.107,139.909,275.684,142.154,275.684,142.154z"/>
			<path style="fill:#E83D3D;" d="M329.475,140.092c-4.222-0.689-11.401,1.993-13.234,2.898c-1.833,0.905-1.767-2.455-4.036-3.307
				c-2.269-0.852-6.132,0.685-12.454,2.544c-6.323,1.858-5.571,4.63-5.571,4.63s1.168-1.254,2.924-1.69
				c1.757-0.436,10.147-3.161,13.938-2.783c3.791,0.377,2.71,4.054,5.443,3.536c2.733-0.517,7.84-3.777,11.707-3.869
				c3.868-0.091,19.712,6.104,19.712,6.104S333.697,140.781,329.475,140.092z"/>
			<path style="fill:#E83D3D;" d="M301.467,130.227c-6.687-1.813-14.193-3.037-19.167-6.497c0,0,4.744,4.867,11.235,6.408
				c6.491,1.54,12.043,2.927,15.567,4.947c3.523,2.019,5.405,3.771,5.405,3.771S308.154,132.04,301.467,130.227z"/>
			<path style="fill:#E83D3D;" d="M327.663,124.627c0,0,12.053,5.818,12.767,8.824c0.714,3.006-10.272,0.973-13.67,1.141
				c-3.398,0.168-10.741,0.897-13.402-0.5c0,0,6.366-0.647,10.272-0.973c3.906-0.326,11.646,0.936,12.541-0.122
				S327.663,124.627,327.663,124.627z"/>
			<path style="fill:#E83D3D;" d="M311.456,126.559c-6.333-1.033-17.984-3.415-19.085-5.521c-1.101-2.106,5.112-1.815,9.606-1.323
				c4.495,0.492,18.251,1.773,18.251,1.773s-17.356-2.831-20.564-3.836c-3.207-1.005-8.831-0.477-11.363,1.759
				c-2.532,2.236,0.517,2.733,3.844,4.479c3.327,1.747,11.934,5.077,16.428,5.569c4.495,0.492,13.522,1.243,16.217,0.96
				C324.792,130.419,317.789,127.591,311.456,126.559z"/>
			<path style="fill:#E83D3D;" d="M323.681,125.422c-4.107-1.392-10.091-3.09-10.091-3.09l5.127,2.522c0,0-5.514-1.622-8.329-2.081
				c-2.815-0.459-8.597-0.439-8.597-0.439c1.293,0.933,7.233,1.42,10.675,2.463c3.442,1.043,15.725,5.454,17.443,5.253
				C331.628,129.848,327.788,126.815,323.681,125.422z"/>
		</g>
		<g>
			<path style="fill:#E83D3D;" d="M400.692,279.341c6.685-3.878,15.044-4.234,15.044-4.234s2.332-7.878,0.339-9.615
				c0,0,4.165-5.248,1.759-9.823c-2.406-4.575-5.293-6.471-5.293-6.471s-3.923-4.404-6.696-9.505
				c-2.773-5.101-11.699-12.625-17.792-14.63c0,0-11.179-12.581-25.479-11.723c0,0-7.279-4.738-11.651-0.909
				c-4.372,3.829-5.184,13.236-5.184,13.236s-4.953,4.771-5.433,7.45c-0.48,2.679,7.859,10.153,6.533,14.985
				c-1.326,4.832-8.285,12.809-7.797,28.099c0.487,15.291,10.979,23.609,20.325,28.036
				C368.713,308.665,394.007,283.219,400.692,279.341z"/>
			<path style="fill:#E59EA5;" d="M400.696,277.194c6.389-3.706,14.38-4.042,14.38-4.042s2.226-7.533,0.32-9.195
				c0,0,3.98-5.017,1.677-9.394c-2.303-4.376-5.063-6.191-5.063-6.191s-3.753-4.214-6.406-9.093
				c-2.654-4.88-11.19-12.079-17.016-14.001c0,0-10.693-12.037-24.364-11.224c0,0-6.961-4.535-11.139-0.875
				c-4.178,3.66-2.287,12.809-2.287,12.809s-7.396,4.408-7.853,6.969c-0.457,2.562,7.518,9.714,6.253,14.334
				c-1.266,4.621-7.914,12.246-7.441,26.87c0.473,14.624,10.508,22.584,19.444,26.823
				C370.138,305.223,394.307,280.899,400.696,277.194z"/>
			<path style="fill:#E83D3D;" d="M382.842,255.739c-2.415-8.56-6.158-10.064-9.775-17.197c-3.617-7.133-9.686-10.728-20.368-11.352
				c0,0,11.053,1.2,15.198,8.646c4.145,7.446,8.064,12.263,10.664,16.298c2.6,4.036,2.103,9.088,1.234,13.564
				c-0.869,4.476-2.108,18.001-2.108,18.001S385.258,264.299,382.842,255.739z"/>
			<path style="fill:#E83D3D;" d="M390.219,248.702c-3.479-1.348-6.82,3.089-6.82,3.089s0,0,3.889-0.548
				c3.889-0.548,9.646,3.575,16.302,8.587c6.656,5.012,9.948,1.259,9.948,1.259C410.03,264.001,393.698,250.05,390.219,248.702z"/>
			<path style="fill:#E83D3D;" d="M394.976,234.052c0,0,7.673,8.11,11.592,12.927c3.92,4.817,6.51,7.064,4.096,8.13
				c-2.414,1.066-14.66-6.545-14.66-6.545s11.865,5.246,11.327,3.145C406.793,249.607,394.976,234.052,394.976,234.052z"/>
			<path style="fill:#E83D3D;" d="M396.076,237.912c0,0-15.692-17.138-28.016-19.803c-5.312-1.149-8.063-2.637-9.469-0.262
				c-1.407,2.375,4.037,7.025,7.575,9.478c3.538,2.452,7.975,5.794,10.839,9.985c2.864,4.192,4.457,6.918,4.457,6.918
				s-2.787-9.137-7.126-13.846c-4.34-4.709-10.878-7.513-10.996-9.721c-0.118-2.208,9.948,1.259,15.802,4.013
				C384.997,227.428,396.076,237.912,396.076,237.912z"/>
			<path style="fill:#E83D3D;" d="M398.823,244.708c-1.676-3.488-7.775-7.636-7.775-7.636s3.074,4.138,3.583,5.687
				c0.508,1.549-1.153,0.743-4.632-0.605c-3.479-1.348-11.406-7.826-11.406-7.826c1.745,1.568,6.119,7.724,10.39,9.541
				C393.253,245.686,400.5,248.196,398.823,244.708z"/>
			<path style="fill:#E83D3D;" d="M385.921,232.788c0,0-5.547-4.176-8.791-5.92c-3.245-1.744-4.198-2.843-5.458-2.52
				c-1.261,0.323,6.9,6.405,8.039,7.792c1.138,1.387,5.923,5.647,8.16,6.082C390.11,238.656,385.921,232.788,385.921,232.788z"/>
		</g>
		<path style="fill:#E83D3D;" d="M160.658,110.018c-8.09,2.09-7.646,14.214-7.646,14.214c-5.541-2.649-18.569-1.502-17.183,5.685
			c1.387,7.186,26.461,14.067,30.456,13.424C170.28,142.697,168.747,107.928,160.658,110.018z"/>
		<g>
			<path style="fill:#E83D3D;" d="M238.966,114.284c0,0-2.693-7.754-5.33-7.517c0,0-14.835-9.735-18.131-9.438
				c-3.296,0.297-10.383,2.782-10.383,2.782s-8.186-2.338-13.35-0.641c-5.164,1.696-23.182,8.243-25.983,14.032
				c-2.801,5.789-2.801,5.789-2.801,5.789s-6.262,4.256-6.426,9.807c0,0,5.549,2.576,8.461,5.389
				c2.912,2.813-4.339,3.467-4.613,7.799c0,0,3.406,0.923,6.319,3.736c2.912,2.813,10.77,16.254,14.123,23.949
				c3.353,7.695,11.045,19.305,21.154,20.854c10.109,1.549,27.688-2.497,32.026-13.347c4.338-10.85,4.333-40.379,5.156-45.99
				c0.823-5.611,9.008-10.656,9.008-10.656S244.129,112.588,238.966,114.284z"/>
			<path style="fill:#E59EA5;" d="M236.274,115.479c0,0-2.514-7.668-4.923-7.451c0,0-13.628-9.702-16.64-9.43
				c-3.012,0.272-9.475,2.676-9.475,2.676s-7.5-2.36-12.211-0.72c-4.71,1.639-21.143,7.98-23.666,13.673
				c-2.523,5.693-2.523,5.693-2.523,5.693s-5.698,4.158-5.812,9.633c0,0,5.091,2.577,7.772,5.372
				c2.681,2.795-3.945,3.392-4.167,7.663c0,0,3.121,0.933,5.802,3.728c2.681,2.795,9.955,16.106,13.071,23.72
				c3.116,7.614,10.226,19.118,19.48,20.713c9.253,1.594,25.301-2.282,29.196-12.957c3.895-10.675,3.697-39.807,4.413-45.338
				c0.716-5.53,8.166-10.453,8.166-10.453S240.984,113.839,236.274,115.479z"/>
			<path style="fill:#E83D3D;" d="M223.145,118.936c-4.59,2.231-5.291,10.103-5.291,10.103s-4.985,0.81-7.271,2.997
				c-2.286,2.187-6.246,14.385-7.758,17.272c-1.512,2.887,0.072,21.777,0.072,21.777c0.907-5.595,0.503-18.239,2.576-20.722
				c2.073-2.483,5.881-16.637,7.789-18.102c1.908-1.466,6.328-1.688,6.328-1.688s1.58-6.529,3.762-9.36
				c2.181-2.831,11.674-5.363,11.674-5.363S227.734,116.705,223.145,118.936z"/>
			<g>
				<path style="fill:#E83D3D;" d="M201.755,145.171c0.402,0.254,0.629,0.413,0.629,0.413
					C202.223,145.435,202.007,145.298,201.755,145.171z"/>
				<path style="fill:#E83D3D;" d="M196.423,142.426c-3.904-1.677-11.352-7.895-15.237-7.429
					c-3.886,0.466-14.082,4.764-14.082,4.764s10.166-3.467,14.904-2.752c4.738,0.716,13.82,6.833,13.82,6.833
					s4.04,0.372,5.926,1.328C200.881,144.618,199.098,143.574,196.423,142.426z"/>
			</g>
			<path style="fill:#E83D3D;" d="M203.067,103.051c-7.603-1.076-13.266,1.66-18.125,4.265c-4.859,2.605-9.314,4.649-11.386,7.132
				c0,0,11.296-4.641,15.725-6.846c4.429-2.205,9.362-3.337,13.244-2.812c3.882,0.525,15.236,1.322,15.236,1.322
				S210.67,104.126,203.067,103.051z"/>
			<path style="fill:#E83D3D;" d="M222.737,107.283c0,0,2.969,1.003,2.509,2.233c-0.46,1.23-7.593,3.049-11.24,3.972
				c-3.646,0.923-12.247,7.932-15.767,10.65c-3.52,2.718-11,4.428-11,4.428s8.333-0.529,11.635-2.551
				c3.303-2.022,11.26-8.927,16.197-11.05c4.937-2.122,14.452-3.503,13.791-5.541C228.201,107.386,222.737,107.283,222.737,107.283z
				"/>
			<path style="fill:#E83D3D;" d="M195.417,119.975c-2.495,0.901-7.967,2.78-12.383,2.012c-4.417-0.768-13.867-2.039-13.867-2.039
				s2.969,1.003,7.677,2.549c4.708,1.546,13.684,0.913,16.526,0.121c2.843-0.792,10.683-5.367,12.052-6.085
				C205.422,116.533,197.912,119.074,195.417,119.975z"/>
			<path style="fill:#E83D3D;" d="M202.926,111.327c-5.364,1.531-15.421,4.651-17.964,4.239c-2.543-0.412-3.908-0.685-2.191-1.294
				c1.717-0.609,14.018-2.112,17.707-6.838c0,0-8.984,2.615-12.792,3.564c-3.808,0.949-8.984,2.615-9.205,4.302
				c-0.221,1.686,9.072,1.992,12.315,1.631c3.243-0.362,13.382-3.99,16.33-4.139c2.947-0.148,6.437-2.036,9.119-2.802
				C216.244,109.989,208.289,109.795,202.926,111.327z"/>
		</g>
		<g>
			<path style="fill:#F2D383;" d="M125.008,158.473c-1.836,1.938-12.37,14.026-3.712,19.931c8.658,5.905,19.626-7.611,19.626-7.611
				s6.145,17.777,15.391,10.445c9.246-7.331,0.065-15.111,0.065-15.111s6.631,0.766,11.77-1.261
				c5.139-2.028,8.29-7.778,2.845-17.075c-5.445-9.296-16.578-1.914-16.578-1.914s1.315-21.283-10.417-18.606
				c-14.636,3.34-9.66,20.213-9.897,18.209c0,0-13.019-10.037-18.439-0.92C110.242,153.677,125.008,158.473,125.008,158.473z"/>
			<path style="fill:#FFFFFF;" d="M126.865,159.109c-1.836,1.938-12.37,14.026-3.712,19.931c8.658,5.905,19.626-7.611,19.626-7.611
				s6.145,17.777,15.391,10.445c9.246-7.331,0.065-15.111,0.065-15.111s6.631,0.766,11.77-1.261
				c5.139-2.028,8.29-7.778,2.845-17.075c-5.445-9.296-16.578-1.914-16.578-1.914s1.315-21.283-10.417-18.606
				c-11.732,2.677-9.897,18.209-9.897,18.209s-13.019-10.037-18.439-0.92C112.098,154.313,126.865,159.109,126.865,159.109z"/>
			<path style="fill:#F2D383;" d="M140.264,161.8c0.295,0.125,0.629,0.174,0.965,0.21c0.281,0.231,0.583,0.44,0.924,0.598
				c0.755,0.35,1.567,0.306,2.357,0.133c0.401-0.088,0.785-0.303,1.143-0.488c0.419-0.217,0.79-0.545,1.138-0.856
				c1.24-1.11,1.971-2.732,2.409-4.304c0.171-0.613,0.252-1.282,0.222-1.918c-0.037-0.786-0.134-1.643-0.546-2.335
				c-0.455-0.763-1.042-1.295-1.908-1.533c-0.714-0.195-1.397-0.162-2.131-0.119c-1.553,0.091-3.074,0.507-4.305,1.511
				c-0.709,0.579-1.368,1.306-1.808,2.113c-0.55,1.008-0.96,2.171-0.872,3.338C137.968,159.691,138.799,161.177,140.264,161.8z"/>
		</g>
		<g>
			<path style="fill:#E83D3D;" d="M398.759,211.134c-1.994-1.919,5.509-6.894,3.02-10.645c-2.489-3.751-6.067-4.259-6.067-4.259
				s-4.471-11.08-7.046-13.333c0,0-7.306-8.84-12.295-10.933c-4.99-2.093-24.032-10.713-24.032-10.713s-9.409,1.558-10.251,5.717
				c-0.842,4.159-9.559-6.266-11.725-5.189c-2.167,1.077-3.614,15.72-3.614,15.72s-7.07-2.514-10.325,1.805
				c-3.256,4.32-1.504,13.237-1.504,13.237s-0.278,5.956-2.791,13.024c-2.513,7.068-3.29,16.58,1.514,27.079
				c4.805,10.498,15.283,32.069,26.859,29.435c11.576-2.634,32.703-27.818,39.536-31.629c6.834-3.811,21.163-3.023,21.163-3.023
				S400.752,213.053,398.759,211.134z"/>
			<path style="fill:#E59EA5;" d="M397.889,213.167c-1.93-1.858,5.334-6.676,2.925-10.307c-2.409-3.631-5.872-4.123-5.872-4.123
				s-4.326-10.727-6.818-12.908c0,0-7.071-8.558-11.9-10.584c-4.83-2.026-23.262-10.368-23.262-10.368s-9.109,1.51-9.924,5.536
				c-0.815,4.027-9.252-6.065-11.349-5.022c-2.097,1.043-3.501,15.221-3.501,15.221s-6.843-2.433-9.995,1.749
				c-3.152,4.183,2.073,9.432,2.073,9.432s1.833,8.545-0.6,15.389c-2.433,6.843-8.822,16.658-4.172,26.822
				c4.649,10.164,17.353,21.957,28.559,19.405c11.206-2.552,29.221-22.17,35.836-25.862c6.616-3.691,19.584-1.485,19.584-1.485
				S399.818,215.025,397.889,213.167z"/>
			<path style="fill:#E83D3D;" d="M351.929,226.656c-0.833-5.723-1.024-9.954-1.329-17.247c-0.305-7.293-0.407-15.592-4.427-19.026
				c-4.021-3.434-16.82-8.54-16.82-8.54s13.399,7.324,15.759,14.299c2.36,6.975,2.054,17.288,2.485,22.406
				c0.431,5.118,2.522,6.694,0.575,12.692c-1.948,5.998-4.094,10.385-4.094,10.385S352.761,232.379,351.929,226.656z"/>
			<path style="fill:#E83D3D;" d="M377.656,199.482c-4.35-0.252-9.462-2.439-14.136-2.128c-4.674,0.311-10.613,7.388-10.613,7.388
				s10.044-5.093,12.62-4.362c2.577,0.731,9.06,1.834,12.404,1.882s15.813,8.337,15.813,8.337
				C391.175,207.249,382.006,199.734,377.656,199.482z"/>
			<path style="fill:#E83D3D;" d="M359.08,183.565c-3.985-1.54-12.68-4.663-16.532-10.997c0,0,3.206,7.461,7.712,10.05
				c4.506,2.589,9.498,4.333,12.068,7.683c2.57,3.35,4.422,4.039,4.422,4.039S363.065,185.105,359.08,183.565z"/>
			<path style="fill:#E83D3D;" d="M390.037,194.233c-2.211-2.02-8.012-2.356-12.884-3.656c-4.871-1.301-10.187-2.481-10.187-2.481
				s10.019,5.382,14.088,5.472c4.069,0.09,11.391,4.297,11.391,4.297S392.248,196.253,390.037,194.233z"/>
			<path style="fill:#E83D3D;" d="M363.815,174.672c4.105,1.984,13.687,4.867,13.687,4.867s-15.814-8.336-19.115-9.11
				c-3.302-0.773-9.018-2.559-9.827-1.151s1.599,5.04,3.529,6.898c1.93,1.858,5.872,4.123,5.872,4.123s-7.556-7.712-6.183-8.797
				C353.148,170.417,359.71,172.688,363.815,174.672z"/>
			<path style="fill:#E83D3D;" d="M383.044,186.844c-2.091-1.576-13.68-7.486-13.68-7.486s6.436,4.447,5.105,4.806
				c-1.331,0.359-8.455-2.236-10.385-4.094c-1.93-1.858-7.161-4.488-7.161-4.488s6.268,7.347,9.246,8.684
				c2.978,1.336,14.615,3.902,16.911,4.471C385.375,189.307,385.135,188.42,383.044,186.844z"/>
		</g>
		<g>
			<path style="fill:#E83D3D;" d="M189.566,181.609c0-6.562,3.178-15.755,3.178-15.755l-11.803-3.255c0,0-0.743-5.791-3.992-7.582
				c-3.249-1.79-11.047,2.153-11.047,2.153s-6.313-2.133-9.191-1.029c-2.878,1.105-8.54,4.038-8.54,4.038s-6.406-2.857-11.883,1.524
				c-5.477,4.381-16.246,8.706-16.246,8.706l-8.262,6.21l3.064,6.229c0,0-7.519,6.115-6.869,11.182
				c0.65,5.067,6.01,7.928,9.724,13.338c3.713,5.41,19.055,22.703,27.596,30.436c8.541,7.734,21.816,11.182,31.006,6.324
				c9.19-4.858,16.524-12.421,15.224-28.441C190.225,199.668,189.566,189.982,189.566,181.609z"/>
			<path style="fill:#E59EA5;" d="M185.519,179.653c2.094-5.993,3.483-11.896,3.483-11.896l-8.9-2.436c0,0-0.722-5.632-3.809-7.383
				c-3.087-1.751-10.47,2.059-10.47,2.059s-5.993-2.094-8.719-1.029c-2.726,1.065-8.087,3.9-8.087,3.9s-6.084-2.797-11.265,1.445
				c-5.181,4.243-15.38,8.413-15.38,8.413l-7.816,6.011l2.925,6.066c0,0-7.112,5.921-6.48,10.85
				c0.632,4.928,7.239,6.227,10.777,11.498c3.539,5.271,16.627,23.629,24.751,31.174c8.124,7.546,20.724,10.938,29.425,6.245
				c8.701-4.694,15.632-12.024,14.35-27.602C189.023,201.387,183.426,185.646,185.519,179.653z"/>
			<path style="fill:#E83D3D;" d="M160.414,194.436c-5.607-2.731-13.337-14.722-18.179-15.755
				c-4.842-1.032-17.586,1.783-23.484,6.188c0,0,16.943-6.455,21.712-3.639c4.77,2.816,15.036,13.958,17.366,15.245
				c2.33,1.287,8.519,7.258,14.587,16.203C172.415,212.678,166.02,197.167,160.414,194.436z"/>
			<path style="fill:#E83D3D;" d="M170.659,165.31c-3.944,0.315-8.119,3.361-9.321,6.529c-1.202,3.167-7.21,13.168-7.21,13.168
				s3.338-2.961,4.115-4.478c0.777-1.517,4.697-7.075,7.222-10.546c2.525-3.471,13.011-3.518,13.011-3.518
				S174.604,164.995,170.659,165.31z"/>
			<path style="fill:#E83D3D;" d="M146.386,170.393c-8.848,3.689-10.413,4.101-14.467,4.174c-4.054,0.072-13.496,3.737-13.496,3.737
				s17.125-2.159,21.445-2.935c4.321-0.776,11.226-3.592,14.807-6.662c3.58-3.07,9.346-7.123,9.346-7.123
				S155.234,166.704,146.386,170.393z"/>
			<path style="fill:#E83D3D;" d="M139.671,169.523c-2.233,0.226-7.719,2.305-7.363,1.367c0.356-0.939,13.787-6.981,13.787-6.981
				s-5.542,1.521-8.221,2.92c-2.678,1.4-10.826,4.482-11.36,5.889c-0.534,1.408,8.301-1.011,11.004-1.059
				c2.702-0.048,11.133-4.23,11.133-4.23S141.904,169.296,139.671,169.523z"/>
			<path style="fill:#E83D3D;" d="M155.254,161.344c-3.511,0.412-9.458,4.061-9.458,4.061l-3.989,2.379
				c1.837-0.242,9.604-3.737,12.339-4.578c2.735-0.842,7.557-2.233,7.557-2.233S158.766,160.932,155.254,161.344z"/>
		</g>
		<path style="fill:#E83D3D;" d="M219.743,164.607c-7.059-1.522-11.416,8.017-11.416,8.017c-3.253-4.194-13.762-8.358-15.477-2.269
			c-1.714,6.089,14.988,21.123,18.323,22.175C214.509,193.581,226.802,166.129,219.743,164.607z"/>
		<path style="fill:#E83D3D;" d="M260.542,120.508c-7.149-2.978-11.377,8.939-11.377,8.939s-7.684-5.939-14.25-0.974
			c-6.566,4.965,15.926,18.432,18.039,18.679C255.066,147.399,267.691,123.487,260.542,120.508z"/>
		<g>
			<path style="fill:#F2D383;" d="M187.794,183.809c-4.943,8.008,0.987,17.037,0.987,17.037s-21.393-7.715-21.016,6.321
				c0.377,14.037,22.627,11.666,22.627,11.666c-7.915,4.519-11.121,12.066-10.837,16.641c0.284,4.575,4.207,7.44,12.406,7.496
				c8.199,0.056,10.361-16.329,10.361-16.329s6.229,11.554,12.69,12.071c6.462,0.517,10.114-3.242,11.745-11.115
				c1.631-7.873-13.301-15.071-13.301-15.071s8.987,0.219,14.065-4.477c5.078-4.696,6.709-12.569,0.276-17.186
				c-6.434-4.617-23.378,5.832-23.378,5.832s4.468-7.696,0.885-14.186C201.724,176.02,192.737,175.801,187.794,183.809z"/>
			<path style="fill:#FFFFFF;" d="M188.148,186.808c-4.943,8.008,0.987,17.037,0.987,17.037s-21.393-7.715-21.016,6.321
				c0.377,14.037,22.627,11.666,22.627,11.666c-7.915,4.519-11.121,12.066-10.837,16.641c0.284,4.575,4.207,7.44,12.406,7.496
				c8.199,0.056,10.361-16.329,10.361-16.329s6.229,11.554,12.69,12.071c6.462,0.517,10.114-3.242,11.745-11.116
				c1.631-7.873-13.301-15.071-13.301-15.071s8.987,0.219,14.065-4.477c5.078-4.696,6.709-12.569,0.275-17.186
				c-6.434-4.617-23.378,5.832-23.378,5.832s4.468-7.696,0.885-14.186C202.078,179.019,193.091,178.799,188.148,186.808z"/>
			<path style="fill:#F2D383;" d="M194.099,210.086c-0.024,0.028-0.054,0.05-0.077,0.079c-0.61,0.761-1.004,1.642-0.98,2.626
				c0.021,0.891,0.328,1.727,0.884,2.428c0.503,0.633,1.061,1.284,1.71,1.774c0.97,0.732,2.006,1.142,3.217,1.258
				c1.852,0.178,4.003-0.555,5.301-1.909c1.171-1.222,1.745-2.831,1.593-4.523c-0.128-1.427-0.811-2.9-1.866-3.877
				c-1.635-1.514-4.021-2.22-6.2-1.576c-1.072,0.316-2.152,0.799-2.857,1.709C194.352,208.686,194.063,209.38,194.099,210.086z"/>
		</g>
		<g>
			<path style="fill:#F2D383;" d="M286.617,150.98c-5.259-5.66-14.341-0.874-14.341-0.874s1.676-3.512,4.555-7.112
				c2.879-3.601-2.914-16.48-12.086-12.897c-9.171,3.583-9.207,16.168-9.207,16.168s-13.833-16.881-20.803-6.444
				c-6.969,10.437,8.102,14.644,8.102,14.644c-6.658-1.685-20.009,7.531-12.541,16.898c7.469,9.368,22.318-5.766,22.318-5.766
				s-1.774,5.454-2.62,10.357c-0.847,4.902,7.005,9.644,17.665,3.289c10.66-6.355,2.54-14.706,2.54-14.706s4.804,2.79,12.112,3.458
				C289.62,168.663,291.875,156.64,286.617,150.98z"/>
			<path style="fill:#FFFFFF;" d="M283.272,151.228c-5.259-5.66-14.341-0.873-14.341-0.873s1.676-3.512,4.555-7.112
				c2.879-3.601-2.914-16.48-12.086-12.897c-9.171,3.583-9.207,16.168-9.207,16.168s-13.833-16.881-20.803-6.444
				c-6.969,10.437,8.102,14.644,8.102,14.644c-6.658-1.685-20.009,7.531-12.541,16.898c7.469,9.368,22.318-5.766,22.318-5.766
				s-1.774,5.454-2.62,10.357c-0.847,4.902,7.005,9.643,17.665,3.289c10.66-6.355,2.54-14.706,2.54-14.706s4.804,2.79,12.113,3.458
				C286.275,168.911,288.531,156.888,283.272,151.228z"/>
			<path style="fill:#F2D383;" d="M260.58,150.666c-0.704-0.642-1.379-1.078-2.31-1.319c-0.294-0.076-0.592-0.073-0.894-0.083
				c-0.321-0.011-0.594-0.019-0.903,0.052c-0.318,0.073-0.628,0.173-0.931,0.29c-1.014,0.078-2.043,0.4-2.812,1.037
				c-0.758,0.629-1.324,1.22-1.766,2.128c-0.475,0.974-0.666,1.97-0.749,3.042c-0.07,0.909,0.079,1.809,0.314,2.681
				c0.334,1.244,0.888,2.293,1.732,3.268c0.326,0.378,0.756,0.71,1.172,0.98c0.405,0.264,0.878,0.453,1.33,0.617
				c0.209,0.075,0.424,0.118,0.644,0.146c0.446,0.058,0.921,0.132,1.374,0.088c1.164-0.115,2.28-0.632,3.153-1.403
				c1.068-0.944,1.794-2.187,2.217-3.534c0.259-0.825,0.434-1.649,0.438-2.525c0.004-1.024-0.11-2.122-0.504-3.077
				C261.729,152.19,261.284,151.307,260.58,150.666z"/>
		</g>
		<g>
			<path style="fill:#C62A2A;" d="M73.185,230.877c0,0-6.653-2.679-9.338-1.98c-2.685,0.699-3.081,2.567-2.713,3.133
				c0,0-2.462,2.406-1.457,4.57c1.005,2.165,3.141,3.593,3.761,3.432c0.619-0.161,0.331,2.119,2.306,2.929
				c1.975,0.809,7.75-1.577,8.533-6.192C75.061,232.153,73.185,230.877,73.185,230.877z"/>
			<path style="fill:#C62A2A;" d="M65.788,205.012c-2.459-2.668-5.091-1.763-5.908-0.667c-0.818,1.095-0.602,1.921-0.602,1.921
				s-3.458,1.121-3.8,3.195c-0.342,2.074,1.067,3.251,1.067,3.251s-0.611,1.042-0.181,2.694c0.43,1.652,7.892,2.356,9.536,1.046
				c1.644-1.31,2.552-3.752,2.552-3.752S68.247,207.68,65.788,205.012z"/>
			<path style="fill:#C62A2A;" d="M81.786,194.45c-2.999,0.34-2.659,3.339-2.659,3.339s-3.376-1.106-3.61,1.381
				c-0.235,2.487-0.011,4.194-0.011,4.194s-1.508-0.71-0.135,2.02c1.372,2.731,6.625,5.113,8.69,4.575
				c2.066-0.538,3.647-2.935,3.647-2.935s1.68-2.864,0.874-5.962C87.774,197.964,84.785,194.11,81.786,194.45z"/>
			<path style="fill:#F2D383;" d="M104.22,228.089c-9.57-4.566-27.276-9.881-30.706-11.194c-3.429-1.313-5.881-3.101-5.881-3.101
				l-0.863,1.769c0,0,6.509,3.819,10.352,5.024c3.843,1.205,19.995,6.483,27.904,10.6c7.909,4.116,44.286,23.538,44.286,23.538
				l0.549-2.128C149.862,252.597,113.79,232.655,104.22,228.089z"/>
			<path style="fill:#F2D383;" d="M95.81,220.354c-3.141-3.593-9.198-14.147-9.198-14.147l-1.132,0.736c0,0,2.27,4.482,5.375,9.629
				c3.105,5.147,9.064,11.094,9.064,11.094l3.95,1.618C103.869,229.283,98.951,223.947,95.81,220.354z"/>
			<path style="fill:#F2D383;" d="M95.762,226.101c0,0-10.192,0.669-15.455,2.48c-5.263,1.811-8.766,3.606-8.766,3.606l0.736,1.132
				c0,0,1.751-0.897,8.154-2.564c6.403-1.667,17.521-3.018,17.521-3.018L95.762,226.101z"/>
			<path style="fill:#F2D383;" d="M93.176,205.159c-3.07-1.626-6.565,1.048-6.565,1.048c-2.326,0.385-3.09,1.687-3.692,3.608
				c-0.603,1.922,0.787,6.412,1.784,7.697c0.996,1.285,2.119-0.331,2.56-2.872c0.441-2.541-0.581-6.466-0.581-6.466
				c2.918,1.887,6.375,0.766,8.647,0.175C97.602,207.756,96.247,206.786,93.176,205.159z"/>
			<path style="fill:#F2D383;" d="M74.272,209.641c-3.834-0.325-6.664,1.515-7.23,1.883c0,0-1.805,0.69-2.552,3.752
				c-0.747,3.062,0.321,6.313,1.379,8.684c1.058,2.371,2.954,0.334,3.234-2.827c0.28-3.161-2.332-5.568-2.332-5.568
				s5.738-0.833,7.535-2.403C76.103,211.59,78.106,209.966,74.272,209.641z"/>
			<path style="fill:#F2D383;" d="M80.007,235.056c-2.253-2.722-4.389-4.151-4.389-4.151c1.896-2.038,1.609-4.83,1.7-6.177
				c0.09-1.347-1.579-2.677-3.978,0.815c-2.399,3.492-1.799,6.644-1.799,6.644c0.841,6.618,8.419,8.615,9.604,8.086
				C82.331,239.744,82.26,237.778,80.007,235.056z"/>
		</g>
		<g>
			<path style="fill:#F2D383;" d="M321.609,218.453c0,0,15.467-15.467,4.583-20.049c-10.884-4.583-19.477,10.884-19.477,10.884
				s2.291-15.466-1.146-18.331c-3.437-2.864-9.738-4.01-16.039,4.583c-6.093,8.308,3.881,15.545,4.546,16.014
				c-0.629-0.439-9.898-6.829-15.43-6.276c-5.728,0.573-11.457,6.874-6.301,17.758c5.156,10.884,18.904,3.437,18.904,3.437
				s-7.447,21.195,6.301,20.622c13.748-0.573,11.457-16.612,11.457-16.612s1.146,2.864,6.874,6.874
				c5.728,4.01,18.331,1.719,19.477-8.02C336.503,219.598,321.609,218.453,321.609,218.453z"/>
			<path style="fill:#FFFFFF;" d="M318.942,217.119c0,0,15.467-15.467,4.583-20.049c-10.884-4.583-19.477,10.884-19.477,10.884
				s2.292-15.467-1.146-18.331c-3.437-2.864-9.738-4.01-16.04,4.583c-6.093,8.309,3.881,15.545,4.547,16.014
				c-0.629-0.439-9.898-6.829-15.43-6.276c-5.728,0.573-11.457,6.874-6.301,17.758c5.156,10.884,18.904,3.437,18.904,3.437
				s-7.447,21.195,6.301,20.622c13.748-0.573,11.457-16.612,11.457-16.612s1.146,2.864,6.874,6.874
				c5.728,4.01,18.331,1.718,19.477-8.02C333.835,218.264,318.942,217.119,318.942,217.119z"/>
			<path style="fill:#F2D383;" d="M304.589,212.409c-0.865-1.017-2.066-1.748-3.391-1.926c-3.018-0.405-5.589,1.877-6.813,4.431
				c-1.117,2.331-0.859,5.242,0.83,7.237c1.744,2.062,4.466,2.976,7.089,2.205c3.095-0.909,5.365-4.222,5.254-7.404
				C307.489,215.02,306.262,213.301,304.589,212.409z M303.849,219.809c-0.001,0.001-0.001,0.001-0.002,0.002
				c0.006-0.05,0.025-0.091,0.049-0.124C303.872,219.736,303.856,219.776,303.849,219.809z M298.716,214.752
				c0.052-0.008,0.103-0.019,0.154-0.03c-0.019,0.007-0.066,0.017-0.157,0.031C298.714,214.753,298.715,214.752,298.716,214.752z
				 M302.326,216.83c0.009,0.051,0.02,0.103,0.029,0.154c-0.004,0.014-0.016-0.027-0.033-0.164
				C302.323,216.823,302.325,216.827,302.326,216.83z M303.079,220.491c0.001-0.001,0.005-0.003,0.007-0.004
				C303.083,220.488,303.081,220.489,303.079,220.491z"/>
		</g>
		<g>
			<path style="fill:#E83D3D;" d="M223.288,166.492c-1.822,0.973-5.796,5.056-6.279,7.442c-0.34,1.676,1.382,6.699,1.382,6.699
				s-4.48-0.762-6.229,3.016s-2.256,2.465-1.678,5.356c0.578,2.891,6.603,16.692,4.651,26.978
				c-1.951,10.285-8.042,23.414-1.847,29.349c6.195,5.935,26.304,10.413,35.993,11.282c9.689,0.869,24.382-11.97,28.66-23.143
				c4.278-11.173,4.296-16.033,8.372-20.698c4.076-4.665,12.264-10.216,14.013-13.995c1.749-3.778-6.198-3.445-6.198-3.445
				l-6.589-0.392c0,0,6.981-2.661,5.629-6.917c-1.351-4.255-12.007-7.453-12.007-7.453s-3.29-3.931-7.549-7.7
				c-4.259-3.769-25.713-3.176-29.395-4.054C240.538,167.94,228.719,163.592,223.288,166.492z"/>
			<path style="fill:#E59EA5;" d="M223.296,168.153c-1.747,0.962-4.361,7.493-4.361,7.493l2.83,7.607c0,0-7.569,0.433-9.287,4.095
				c-1.718,3.662,3.246,4.663,3.755,7.438s2.546,13.874,0.544,23.802c-2.002,9.928-2.155,19.517,3.658,25.143
				c5.813,5.626,17.137,12.63,26.348,13.33c9.211,0.7,22.181-14.587,26.411-25.402c4.23-10.815,5.023-14.307,8.969-18.855
				c3.946-4.548,12.308-8.473,14.026-12.135c1.718-3.662-5.851-3.229-5.851-3.229l-6.267-0.284c0,0,6.682-2.66,5.456-6.738
				c-1.226-4.077-11.324-7.005-11.324-7.005s-3.076-3.738-7.077-7.306s-17.837-3.419-21.329-4.213
				C246.305,171.101,228.506,165.284,223.296,168.153z"/>
			<path style="fill:#E83D3D;" d="M253.397,187.63c-10.53-6.217-17.135-16.853-28.565-17.385c0,0,6.049,1.505,10.532,8.273
				c4.483,6.769,16.646,12.621,22.151,14.247c5.505,1.627,23.471,4.811,23.471,4.811S263.927,193.847,253.397,187.63z"/>
			<path style="fill:#E83D3D;" d="M263.474,220.457c0.417-5.806-5.513-8.823-9.208-13.597c-3.695-4.773-7.941-15.594-12.6-17.524
				c-4.659-1.93-11.195-5.612-17.724-4.153c0,0,14.153,0.952,19.667,10.803c5.515,9.852,7.877,12.752,13.507,18.007
				c5.63,5.255,1.464,10.642,2.925,19.228c1.461,8.586,2.374,13.182,2.374,13.182S263.057,226.263,263.474,220.457z"/>
			<path style="fill:#E83D3D;" d="M276.314,184.337c0,0-3.447,0.427-7.983,0.07c-4.536-0.358-13.068-4.279-16.82-6.754
				c-3.752-2.475-14.945-6.031-14.945-6.031s4.6,3.2,9.502,6.219c4.902,3.018,12.528,7.485,22.085,9.348
				C277.71,189.053,276.314,184.337,276.314,184.337z"/>
			<path style="fill:#E83D3D;" d="M269.839,180.414c0,0-7.02-3.802-11.919-4.764c-4.9-0.962-7.864-1.443-7.864-1.443
				s1.757,2.236,6.415,4.165c4.659,1.93,8.955,3.256,8.955,3.256l-5.63-4.227C263.063,178.728,269.839,180.414,269.839,180.414z"/>
		</g>
		<g>
			<path style="fill:#E83D3D;" d="M148.026,212.421c0,0-1.704-6.989-4.638-8.423c-2.934-1.435-20.692-0.702-20.692-0.702
				s-5.292-3.312-9.324-0.214c-4.033,3.098-21.868,8.499-27.053,12.481c-5.185,3.983,1.443,9.034,1.443,9.034l-5.838,9.095
				c0,0-6.783,4.287-6.153,7.492c0,0,1.461,7.176,11.914,14.821c10.453,7.646,20.025,27.953,26.968,34.606
				c6.943,6.654,21.743,12.804,36.014,2.763c14.272-10.04,12.544-37.72,10.07-53.96c-1.327-8.71-0.008-24.764-0.008-24.764
				L148.026,212.421z"/>
			<path style="fill:#E59EA5;" d="M146.855,213.445c0,0-1.612-6.68-4.418-8.043c-2.807-1.363-19.822-0.609-19.822-0.609
				s-5.06-3.152-8.933-0.177c-3.873,2.975-20.977,8.195-25.957,12.02c-4.98,3.825,1.355,8.636,1.355,8.636l-5.621,8.716
				c0,0-6.511,4.121-5.918,7.185c0,0,0.762,5.573,10.753,12.854c9.991,7.281,19.718,27.961,26.349,34.304
				c6.632,6.343,20.792,12.181,34.497,2.534c13.704-9.647,7.265-47.807,7.866-56.187c0.602-8.38,2.013-19.141,2.013-19.141
				L146.855,213.445z"/>
			<path style="fill:#E83D3D;" d="M128.867,221.372c-3.908,2.743-6.394,11.478-6.394,11.478s-8.946,3.126-11.354,7.182
				c-2.409,4.055,1.461,17.577,1.461,17.577s-0.576-14.52,1.68-16.471c2.256-1.952,10.495-4.739,10.495-4.739
				s1.75-6.641,5.696-11.724c3.947-5.083,15.272-10.51,15.272-10.51S132.775,218.629,128.867,221.372z"/>
			<path style="fill:#E83D3D;" d="M98.549,228.939c-3.991,0.752-16.27,7.217-16.27,7.217s8.012-3.259,14.579-4.085
				c6.567-0.826,16.472,1.68,16.472,1.68S102.54,228.186,98.549,228.939z"/>
			<path style="fill:#E83D3D;" d="M126.649,207.059c0,0,5.717,1.032,7.452,2.231c1.735,1.199-11.118,7.069-16.196,9.793
				c-5.077,2.723-9.034,8.391-9.034,8.391s5.672-3.299,8.985-5.467c3.313-2.168,21.111-9.827,21.057-13.573
				C138.859,204.689,126.649,207.059,126.649,207.059z"/>
			<path style="fill:#E83D3D;" d="M95.963,215.672c-3.672,2.63-4.93,7.875-4.93,7.875s4.984-4.129,7.363-6.43
				c2.379-2.301,18.289-9.055,18.289-9.055C111.648,208.446,99.634,213.042,95.963,215.672z"/>
			<path style="fill:#E83D3D;" d="M121.326,210.48c0,0-12.455,3.068-15.316,6.18c-2.861,3.112-8.032,4.429-8.071,6.769
				c-0.039,2.34,5.756-1.308,9.53-3.117C111.245,218.502,125.627,212.19,121.326,210.48z"/>
		</g>
		<g>
			<path style="fill:#F2D383;" d="M155.893,292.323c0,0,2.821,1.413,8.958,2.677c6.138,1.264,13.426-4.335,9.582-12.27
				c-3.844-7.935-21.271-7.797-21.271-7.797s5.013-20.091-7.305-18.158c-12.318,1.934-4.815,11.893-4.815,11.893
				s-4.952-5.534-9.222-6.719c-4.27-1.186-8.66,3.958-9.504,10.402c-0.844,6.444,13.719,9.354,13.719,9.354
				s-6.941,0.718-7.857,1.976c-0.916,1.258-6.684,11.815-2.15,17.043c4.533,5.228,17.852-6.886,17.852-6.886
				s-2.186,14.45,2.766,19.984c4.952,5.534,10.486,0.581,13.504-6.204C163.169,300.833,155.893,292.323,155.893,292.323z"/>
			<path style="fill:#FFFFFF;" d="M158.573,292.772c0,0,2.821,1.413,8.958,2.677c6.138,1.264,13.426-4.335,9.582-12.27
				c-3.844-7.935-21.271-7.797-21.271-7.797s5.013-20.091-7.305-18.157c-12.318,1.934-4.815,11.893-4.815,11.893
				s-4.952-5.534-9.222-6.719c-4.27-1.186-8.66,3.958-9.504,10.402c-0.844,6.444,13.719,9.354,13.719,9.354
				s-6.941,0.718-7.857,1.976c-0.916,1.258-6.683,11.815-2.15,17.043c4.533,5.228,17.852-6.886,17.852-6.886
				s-2.186,14.45,2.766,19.984c4.952,5.534,10.486,0.581,13.504-6.204C165.849,301.282,158.573,292.772,158.573,292.772z"/>
			<path style="fill:#F2D383;" d="M155.809,282.96c-0.393-0.863-1.154-1.579-1.995-2.031c-0.278-0.565-0.726-1.039-1.333-1.292
				c-1.023-0.426-2.291-0.351-3.328,0.001c-1.753,0.595-3.352,1.901-4.082,3.635c-0.352,0.836-0.574,1.704-0.505,2.621
				c0.07,0.921,0.422,1.71,0.963,2.442c1.06,1.435,3.028,2.18,4.775,2.057c2.481-0.176,5.049-1.807,5.725-4.317
				C156.318,285.005,156.271,283.976,155.809,282.96z M148.511,285.438c0.001-0.045-0.005-0.094-0.016-0.146
				c0.002,0.003,0.004,0.005,0.005,0.008c0.011,0.023,0.017,0.069,0.012,0.141C148.512,285.44,148.512,285.439,148.511,285.438z
				 M148.889,283.302c0.003-0.005,0.006-0.01,0.009-0.015c0.048-0.057,0.096-0.114,0.142-0.172
				C149.04,283.123,149,283.178,148.889,283.302z M149.29,283.293c0.001-0.004,0.001-0.007,0.002-0.011
				c0.007-0.016,0.008-0.021,0.004-0.017c0.035-0.14,0.108-0.138-0.001,0.056C149.293,283.312,149.292,283.303,149.29,283.293z
				 M149.845,284.181c-0.002-0.001-0.003-0.001-0.004-0.002c0.011-0.009,0.022-0.017,0.035-0.028
				C149.865,284.16,149.855,284.171,149.845,284.181z M149.682,282.622c-0.003,0.001-0.005,0.002-0.008,0.004l0,0
				C149.677,282.625,149.68,282.624,149.682,282.622L149.682,282.622z M149.607,282.661
				C149.607,282.66,149.607,282.66,149.607,282.661c-0.012,0.005-0.027,0.014-0.038,0.019
				C149.582,282.673,149.594,282.667,149.607,282.661z M149.249,282.881c0.015-0.012,0.034-0.025,0.053-0.038
				c-0.025,0.023-0.067,0.058-0.129,0.109c0.002-0.002,0.003-0.004,0.004-0.005c0.009-0.01,0.02-0.02,0.031-0.031
				C149.222,282.905,149.235,282.892,149.249,282.881z M151.312,287.435c0.012-0.004,0.022-0.008,0.032-0.011
				c-0.003,0.002-0.009,0.006-0.012,0.008C151.326,287.433,151.319,287.434,151.312,287.435z M151.334,287.431
				c0.005-0.003,0.008-0.005,0.013-0.008c0.032-0.011,0.057-0.019,0.057-0.019C151.387,287.417,151.362,287.425,151.334,287.431z
				 M152.088,286.726c-0.053,0.078-0.141,0.164-0.214,0.251c0.038-0.027,0.051-0.004-0.028,0.066
				c-0.017,0.014-0.033,0.03-0.05,0.044c-0.011,0.019-0.025,0.038-0.031,0.057c0.008-0.023,0.018-0.035,0.028-0.053
				c-0.056,0.05-0.112,0.1-0.169,0.15c0.016-0.006,0.026-0.014,0.045-0.019c-0.017,0.005-0.039,0.022-0.059,0.032
				c-0.026,0.023-0.051,0.046-0.078,0.069c-0.019,0.017-0.026,0.017-0.039,0.025c0.001,0,0.004-0.001,0.004-0.001
				c0,0.001-0.009,0.004-0.011,0.005c-0.016,0.009-0.029,0.017-0.034,0.016c-0.006,0.003-0.016,0.006-0.024,0.009
				c0.009-0.005,0.016-0.009,0.024-0.013c-0.002-0.002-0.004-0.005-0.002-0.01c-0.014,0.01-0.032,0.023-0.044,0.031
				c-0.061,0.023-0.127,0.047-0.168,0.061c-0.01,0.001-0.02,0.002-0.03,0.003c-0.106-0.004-0.222,0.005-0.32,0.006
				c-0.026,0-0.043,0.001-0.059,0.001c-0.066-0.012-0.133-0.028-0.191-0.041c-0.076-0.017-0.194-0.068-0.302-0.105
				c0.005,0.009-0.01,0.01-0.041,0.003c0.008-0.002,0.015-0.006,0.023-0.009c-0.045-0.014-0.084-0.022-0.119-0.025
				c-0.002-0.001-0.005-0.002-0.007-0.004c0.065-0.002,0.113,0.01,0.135,0.026c0.763-0.238,1.47-0.651,2.061-1.196
				c-0.057,0.143-0.117,0.285-0.178,0.427c-0.012,0.029-0.019,0.048-0.022,0.062C152.148,286.648,152.105,286.7,152.088,286.726z"/>
		</g>
		<path style="fill:#E83D3D;" d="M160.438,227.87c-6.742-2.186-7.811,8.062-7.811,8.062s-11.285-2.242-12.637,3.553
			c-1.352,5.795,15.379,11.474,18.05,11.304C160.712,250.619,167.18,230.055,160.438,227.87z"/>
		<g>
			<path style="fill:#F2D383;" d="M355.596,279.335c0,0,20.202-12.856,8.571-20.203c-11.632-7.346-20.203,6.122-20.203,6.122
				c0.612-9.183,1.189-21.55-14.626-18.294c-16.656,3.429,1.769,25.029,1.769,25.029s-6.734-5.51-11.019-6.122
				c-4.285-0.612-9.795,0.612-8.571,12.244c1.224,11.632,16.529,9.183,16.529,9.183s-7.346,4.285-9.183,9.183
				c-1.837,4.897,2.449,12.244,11.02,14.693c8.571,2.449,16.529-17.141,16.529-17.141s5.51,11.632,11.632,11.019
				c6.122-0.612,11.02-3.061,9.183-14.693C365.391,278.723,355.596,279.335,355.596,279.335z"/>
			<path style="fill:#FFFFFF;" d="M354.372,276.888c0,0,20.202-12.856,8.571-20.203c-11.632-7.346-20.202,6.122-20.202,6.122
				c0.612-9.183-4.285-19.59-14.693-14.08c-10.407,5.51,1.837,20.815,1.837,20.815s-6.734-5.51-11.02-6.122
				c-4.285-0.612-9.795,0.612-8.571,12.244c1.224,11.632,16.529,9.183,16.529,9.183s-7.346,4.285-9.183,9.183
				c-1.837,4.897,2.449,12.244,11.02,14.693c8.571,2.449,16.529-17.142,16.529-17.142s5.51,11.632,11.632,11.019
				c6.122-0.612,11.02-3.061,9.183-14.693C364.167,276.276,354.372,276.888,354.372,276.888z"/>
			<path style="fill:#F2D383;" d="M341.511,270.664c-0.037,0.017-0.077,0.039-0.115,0.059c-1.153-0.14-2.353,0.064-3.44,0.593
				c-2.467,1.202-3.663,4.046-3.458,6.675c0.182,2.34,1.721,4.292,4.006,4.859c2.506,0.622,5.153-0.572,6.983-2.225
				c2.021-1.826,3.674-5.313,2.276-7.964C346.55,270.36,343.837,269.584,341.511,270.664z M340.565,278.109
				c-0.012-0.007-0.03-0.02-0.05-0.037c0.01,0.003,0.013,0.003,0.025,0.007c0.027,0.022,0.036,0.031,0.036,0.034
				C340.573,278.112,340.569,278.11,340.565,278.109z"/>
		</g>
		<g>
			<path style="fill:#E83D3D;" d="M237.547,249.472L231.78,241l-11.171-6.702c0,0-1.514-7.102-9.621-5.057
				c-8.107,2.044-29.006,6.657-37.114,8.702c-8.107,2.044-12.683,0.966-13.692,6.078c-1.009,5.112-12.431,7.073-12.178,13.18
				c0.252,6.107,4.829,7.185,10.162,11.814c5.333,4.629,9.622,19.828,16.757,32.209c7.135,12.38,17.333,18.737,28.071,17.08
				c10.738-1.657,20.142-8.164,25.294-20.557c5.152-12.393,0.106-31.143,4.034-35.219c3.927-4.076,10.017-10.666,10.017-10.666
				L237.547,249.472z"/>
			<path style="fill:#E59EA5;" d="M232.745,252.637l-3.064-8.633l-10.697-6.781c0,0-1.566-6.992-9.2-5.14
				c-7.634,1.851-27.324,5.98-34.957,7.832c-7.634,1.851-11.984,0.708-12.843,5.701c-0.858,4.993-11.63,6.7-11.276,12.693
				c0.354,5.992,4.705,7.135,9.839,11.774c5.134,4.639,9.479,19.621,16.464,31.894c6.985,12.272,16.756,18.697,26.886,17.274
				c10.13-1.422,18.907-7.624,23.549-19.678c4.642-12.054-0.486-30.531,3.154-34.453c3.639-3.922,9.278-10.268,9.278-10.268
				L232.745,252.637z"/>
			<path style="fill:#E83D3D;" d="M229.186,252.829c-1.027-0.083-12.964,3.192-18.179,3.805
				c-5.215,0.613-10.317,13.942-10.317,13.942s-9.894,6.125-10.935,10.07c-1.041,3.945-0.558,23.613-0.558,23.613
				s-4.822-20.947-1.801-26.385c3.021-5.439,10.527-6.281,12.676-11.17s3.516-11.597,8.259-12.765
				C213.075,252.771,229.186,252.829,229.186,252.829z"/>
			<path style="fill:#E83D3D;" d="M183.761,256.3c-4.335-2.622-10.576-2.091-18.237-1.882c-7.662,0.21-12.244,0.667-12.244,0.667
				s6.465,3.103,14.92,2.028c8.454-1.076,14.764,1.395,16.652,3.613c1.887,2.218,9.686,8.011,9.686,8.011
				S188.096,258.921,183.761,256.3z"/>
			<path style="fill:#E83D3D;" d="M212.67,233.42c0,0,1.81,1.902,1.168,4.743c-0.642,2.841-9.734,5.415-15.347,7.132
				c-5.613,1.717-12.667,8.484-12.667,8.484s7.511-2.185,13.129-5.245c5.618-3.06,16.603-4.758,17.959-8.781
				C218.27,235.73,212.67,233.42,212.67,233.42z"/>
			<path style="fill:#E83D3D;" d="M176.917,248.93c-4.738-0.175-12.643,1.771-10.741-0.039c1.902-1.81,20.645-8.772,20.645-8.772
				s-15.965,3.26-18.655,4.593c-2.69,1.333-8.153,5.025-6.183,6.217c1.97,1.192,15.795,0.135,19.113-0.011
				c3.318-0.146,8.148-3.683,8.148-3.683S181.655,249.105,176.917,248.93z"/>
			<path style="fill:#E83D3D;" d="M206.342,236.32c-2.286-1.114-5.453,1.007-11.305,3.119c-5.852,2.112-14.788,5.318-14.788,5.318
				s19.448-5.459,19.365-4.432c-0.083,1.026-9.967,4.466-9.967,4.466s9.564-2.019,12.093-2.642
				C204.27,241.525,208.628,237.434,206.342,236.32z"/>
		</g>
		<path style="fill:#E83D3D;" d="M248.254,224.598c-8.38-1.156-8.545,8.271-8.545,8.271s-6.696-10.357-13.08-2.745
			c-3.557,4.241,13.234,18.23,15.566,16.923C244.527,245.74,254.879,225.512,248.254,224.598z"/>
		<g>
			<path style="fill:#F2D383;" d="M266.836,261.102c-5.793-12.112-25.277-0.526-25.277-0.526s3.16-15.798-7.372-14.745
				c-10.532,1.053-7.899,13.691-7.899,13.691c-2.106-1.58-22.117-6.846-20.011,8.952c2.106,15.798,16.325,6.846,16.325,6.846
				s-11.585,10.532-4.739,21.064c6.846,10.532,18.957-11.585,18.957-11.585s10.532,19.484,18.431,8.425
				c7.899-11.058-6.846-15.798-6.846-15.798C252.618,278.479,272.629,273.213,266.836,261.102z"/>
			<path style="fill:#FFFFFF;" d="M268.557,257.66c-5.793-12.112-25.277-0.526-25.277-0.526s3.16-15.798-7.372-14.745
				c-10.532,1.053-7.899,13.691-7.899,13.691c-2.106-1.58-22.117-6.846-20.011,8.952c2.106,15.798,16.325,6.846,16.325,6.846
				s-11.585,10.532-4.739,21.064c6.846,10.532,18.957-11.585,18.957-11.585s10.532,19.484,18.431,8.425
				c7.899-11.058-6.846-15.798-6.846-15.798C254.339,275.038,274.349,269.772,268.557,257.66z"/>
			<path style="fill:#F2D383;" d="M243.737,264.676c-0.056-0.081-0.118-0.144-0.176-0.215c-0.13-0.396-0.329-0.764-0.658-1.05
				c-1.479-1.283-3.74-1.653-5.549-0.877c-1.246,0.535-2.323,1.338-3.047,2.512c-0.755,1.223-1.153,2.538-1.222,3.97
				c-0.046,0.95,0.18,2.11,0.695,2.923c0.245,0.386,0.529,0.796,0.899,1.081c0.283,0.217,0.592,0.441,0.918,0.599
				c0.355,0.173,0.752,0.252,1.131,0.344c0.395,0.096,0.792,0.137,1.199,0.133c0.635-0.007,1.297-0.038,1.915-0.194
				c1.296-0.329,2.5-1.126,3.273-2.226c0.995-1.414,1.566-3.122,1.374-4.864C244.408,266.08,244.164,265.289,243.737,264.676z
				 M242.518,263.607c-0.061-0.032-0.117-0.059-0.176-0.091c-0.039-0.021-0.076-0.042-0.115-0.062
				C242.324,263.505,242.421,263.556,242.518,263.607z"/>
		</g>
		<g>
			<path style="fill:#E83D3D;" d="M255.607,233.954c0,0-6.441-8.87-10.511-6.856c0,0,2.674,5.376,2.752,8.869
				c0,0-4.578,4.701-2.235,7.927c2.342,3.225,5.475,10.079,5.475,10.079s0.917,2.956,1.454,7.928
				c0.536,4.972-1.338,22.707-0.47,29.828c0.868,7.122,7.69,13.976,14.307,18.009c6.617,4.033,22.369,10.488,32.237,1.22
				s15.227-29.824,18.253-34.122c3.026-4.299,12.386-10.879,12.386-10.879l-0.537-4.972c0,0,7.047-2.147,8.394-5.372
				c1.347-3.224-2.469-2.554-2.469-2.554s2.694-6.449-3.923-10.482s-22.75-8.472-26.644-11.295
				c-3.894-2.823-21.882-1.351-28.753-4.04c-6.871-2.689-12.648-7.26-15.928-1.618C256.115,231.267,255.607,233.954,255.607,233.954
				z"/>
			<path style="fill:#E59EA5;" d="M257.644,236.528c0,0-5.878-8.616-9.67-6.603c0,0,2.423,5.234,2.459,8.653
				c0,0-4.29,4.648-2.152,7.781c2.137,3.133,4.97,9.809,4.97,9.809s0.82,2.884,1.266,7.745c0.446,4.861-1.472,22.239-0.74,29.201
				c0.732,6.962,6.983,13.601,13.074,17.481c6.09,3.88,20.621,10.037,29.859,0.865c9.238-9.172,14.414-29.347,17.262-33.585
				c2.848-4.238,11.588-10.775,11.588-10.775l-0.446-4.861c0,0,6.552-2.174,7.833-5.344c1.281-3.17-2.262-2.474-2.262-2.474
				s2.562-6.339-3.528-10.219c-6.09-3.88-20.994-8.06-24.574-10.783c-3.58-2.723-20.263-1.099-26.602-3.661
				c-6.339-2.562-11.646-6.977-14.743-1.421C258.142,233.893,257.644,236.528,257.644,236.528z"/>
			<path style="fill:#E83D3D;" d="M291.237,285.35c-1.555-7.117-1.928-20.493-5.682-24.102c-3.753-3.609-9.651-4.894-10.801-7.84
				c-1.149-2.946-1.85-10.073-7.428-12.15c-5.578-2.077-9.313-3.977-9.313-3.977s3.816,3.28,7.983,5.602
				c4.167,2.322,6.154,9.862,6.667,11.665c0.512,1.803,7.421,2.255,10.934,8.036c3.514,5.781,3.9,17.284,6.225,25.74
				c2.326,8.457,2.207,12.699,2.207,12.699S292.792,292.467,291.237,285.35z"/>
			<path style="fill:#E83D3D;" d="M315.916,256.749c-4.354-1.334-8.662,1.605-13.625,1.691c-4.963,0.086-12.216-4.866-14.882-5.2
				s-8.662,1.605-8.662,1.605s1.781,0.507,7.136,0.154c5.355-0.353,15.158,6.446,16.703,6.397c1.545-0.049,6.471-3.554,11.639-2.919
				c5.168,0.635,9.571,3.514,9.571,3.514S320.27,258.083,315.916,256.749z"/>
			<path style="fill:#E83D3D;" d="M315.843,249.911c-5.034-0.439-11.951,4.566-11.951,4.566c2.533,0.137,9.983-4.084,15.263-2.234
				c5.28,1.85,9.851,2.032,9.851,2.032C326.145,254.075,320.878,250.351,315.843,249.911z"/>
			<path style="fill:#E83D3D;" d="M283.868,244.895c-4.443-3.569-13.52-6.99-15.484-9.237c-1.964-2.247-1.621-4.059,1.343-3.499
				c2.965,0.56,22.12,5.714,22.12,5.714s-12.638-4.435-16.734-6.232c-4.096-1.797-8.294-3.955-10.861-1.199
				c-2.568,2.756,1.061,7.024,5.62,9.079c4.559,2.055,11.73,5.628,14.62,8.391c2.889,2.763,11.926,5.494,11.926,5.494
				S288.312,248.463,283.868,244.895z"/>
			<path style="fill:#E83D3D;" d="M323.672,247.297c-1.665-2.02-8.806-5.758-14.157-8.133c-5.351-2.376-14.37-3.397-14.37-3.397
				s6.967,2.852,9.972,4.102c3.005,1.25,12.71,4.96,13.182,6.073c0.472,1.113-1.535,0.904-6.899,0.402
				c-5.364-0.502-12.313-1.644-16.555-1.763c-4.242-0.119-14.152-4.55-14.152-4.55s6.883,4.2,10.907,5.472
				c4.025,1.272,8.77,2.339,14.752,2.275C312.335,247.713,325.338,249.317,323.672,247.297z"/>
			<path style="fill:#E83D3D;" d="M304.384,241.947c-4.118-0.778-9.522-1.969-9.522-1.969s-1.874-0.013-3.953-0.747
				c-2.079-0.734-13.453-3.736-14.267-3.036c-0.815,0.699,0.895,0.681,5.186,2.344c4.291,1.664,9.108,3.256,11.979,4.31
				c2.871,1.054,15.371,1.71,16.483,1.238C311.404,243.614,308.501,242.725,304.384,241.947z"/>
		</g>
		<path style="fill:#E83D3D;" d="M365.153,244.749c-3.406-5.539-11.628,0.816-11.628,0.816s-2.02-8.654-7.95-9.908
			c-5.93-1.253-2.265,18.971-1.542,21.039c0.723,2.068,2.243,1.769,6.927-0.101C355.645,254.726,368.559,250.288,365.153,244.749z"
			/>
		<path style="fill:#F2D383;" d="M236.296,312.645c-0.656-3.443-4.633-3.385-8.092-2.445c-3.459,0.939-11.669,5.583-11.669,5.583
			s2.008-10.388,0.567-15.011c-1.441-4.623-2.904-3.854-5.877-1.468c-2.973,2.386-9.38,10.254-9.38,10.254s-2.599-9.23-6.068-13.116
			c-3.47-3.886-7.083-5.226-8.909-3.059c-1.826,2.167-1.368,14.114-1.368,14.114s-13.243-6.711-18.587-7.582
			c-5.343-0.87-5.989,0.512-4.783,4.27c1.206,3.758,17.401,13.475,20.15,15.05c2.749,1.575,28.218,10.055,28.218,10.055
			s7.514,0.485,12.564-3.486C228.112,321.831,236.952,316.088,236.296,312.645z"/>
		<path style="fill:#E83D3D;" d="M322.889,172.185c-4.815-4.641-11.883,0.457-11.883,0.457s-2.451-11.692-7.909-10.773
			c-5.458,0.918-2.309,22.408,0.299,22.992C306.005,185.444,327.705,176.826,322.889,172.185z"/>
		<g>
			<path style="fill:#F2D383;" d="M257.481,455.897c-0.773,0.757-19.903-1.571-38.934-4.217c-0.452-0.062-0.903-0.124-1.353-0.194
				c-12.313-1.717-24.396-3.545-31.24-4.731c-17.668-3.057-67.336-5.057-68.152-7.092c-0.546-1.388,3.183-30.073,5.796-50.952
				c0.108-0.844,0.213-1.663,0.308-2.474c1.086-8.717,1.917-15.708,2.07-18.182c0.507-8.431,0.484-21.251,1.767-22.519
				c1.292-1.267,54.365,4.743,65.792,7.074c5.721,1.175,16.145,1.363,28.78,2.252c0.721,0.05,1.459,0.103,2.196,0.163
				c12.103,0.922,26.027,2.552,39.711,6.299c0,0-0.759,23.226-1.081,38.689c-0.012,0.622-0.033,1.234-0.042,1.83
				c-0.051,2.712-0.092,5.121-0.101,7.042C262.908,421.683,258.764,454.628,257.481,455.897z"/>
			<g>
				<path style="fill:#E83D3D;" d="M263.096,401.842c-8.034-0.564-26.035-1.825-31.891-2.437c-1.18-0.122-3.618-0.365-6.921-0.684
					c-0.437-0.034-0.891-0.079-1.361-0.126c-0.171-0.02-0.351-0.033-0.53-0.054c-0.01,0.008-0.009-0.001-0.009-0.001
					c-0.077-0.009-0.155-0.01-0.232-0.019c-0.334-0.031-0.667-0.07-1.018-0.103c-0.061,0.001-0.129-0.007-0.197-0.015
					c-0.239-0.028-0.471-0.047-0.719-0.067c-0.839-0.081-1.72-0.168-2.626-0.257l-0.009-0.001
					c-6.317-0.596-14.071-1.335-21.902-2.083c-0.898-0.088-1.789-0.167-2.679-0.255c-16.629-1.593-32.911-3.188-35.904-3.644
					c-4.065-0.608-22.115-2.334-33.502-3.388c0.108-0.844,0.213-1.663,0.308-2.474c6.456,0.742,14.564,1.705,20.012,2.406
					c6.88,0.887,31.34,3.514,50.342,5.464c0.931,0.101,1.847,0.191,2.754,0.281c8.371,0.864,15.396,1.552,18.882,1.858
					c0.24,0.02,0.497,0.041,0.763,0.064l0.009,0.001c1.045,0.088,2.262,0.197,3.625,0.305c0.111,0.013,0.214,0.017,0.325,0.03
					c0.514,0.043,1.046,0.089,1.595,0.127c0.077,0.009,0.154,0.018,0.231,0.019l0.009,0.001c2.93,0.25,6.343,0.521,9.944,0.806
					l0.009,0.001c11.258,0.9,24.38,1.917,30.734,2.413C263.126,400.634,263.106,401.246,263.096,401.842z"/>
				<path style="fill:#E83D3D;" d="M218.547,451.68c-0.452-0.062-0.903-0.124-1.353-0.194c0.6-7.234,1.347-16.822,2.005-27.416
					c0.511-8.093,0.616-16.562,0.999-25.267c0.001-0.156,0.01-0.31,0.02-0.465c0.015-0.569,0.048-1.145,0.073-1.722
					c0.003-0.103,0.007-0.207,0.019-0.309c0.068-1.533,0.153-3.063,0.256-4.6c1.366-21.173,1.7-31.736,1.747-36.845
					c0.721,0.05,1.459,0.103,2.196,0.163c-0.401,6.132-1.744,26.737-2.254,40.273c-0.005,0.268-0.018,0.517-0.022,0.776
					c-0.01,0.232-0.02,0.465-0.022,0.698c-0.007,0.06-0.006,0.12-0.012,0.18c-0.009,0.371-0.026,0.732-0.033,1.087
					c-0.001,0.086-0.002,0.164-0.011,0.241l-0.001,0.009c-0.001,0.078-0.001,0.156-0.002,0.233
					c-0.039,1.138-0.059,2.191-0.077,3.159c-0.009,0.008-0.01,0.016-0.002,0.017c-0.011,1.193-0.021,2.239-0.003,3.115
					C222.197,412.41,219.989,436.773,218.547,451.68z"/>
				<path style="fill:#E83D3D;" d="M248.451,386.116c-2.944-2.926-5.72-2.577-10.929-0.161c-5.216,2.407-15.147,9.279-15.147,9.279
					l-0.12,0.064l-1.346,0.698l-0.01,0.008l-0.414,0.211l-0.175,0.092l-0.028,0.014c0,0-17.02-7.611-20.863-6.427
					c-1.68,0.521-3.494,2.185-5.161,4.214c-0.434,0.52-0.853,1.068-1.257,1.635c-1.607,2.182-2.965,4.532-3.803,6.208
					c-1.879,3.76-1.122,9.76,2.445,11.071c3.558,1.319,9.668-3.311,13.802-5.94c3.246-2.067,11.408-6.482,14.752-8.278
					c0.287-0.157,0.527-0.284,0.739-0.398c0.056-0.037,0.111-0.065,0.166-0.084c0.361-0.2,0.564-0.306,0.564-0.306
					s0.095,0.003,0.267,0.014c0.069-0.001,0.146,0.009,0.232,0.01c0.172,0.012,0.379,0.018,0.62,0.03
					c0.303,0.001,0.656,0.016,1.053,0.02c1.684,0.034,4.1,0.024,6.262-0.189c0.621-0.057,1.404-0.164,2.294-0.301l0.009,0.001
					c4.568-0.717,11.888-2.401,14.059-3.859C249.064,392.013,251.389,389.024,248.451,386.116z M217.583,398.08
					c-4.176,2.538-17.066,10.29-19.031,11.029c-2.354,0.883-5.344,2.902-7.346,0.936c-2.008-1.984-0.378-7.237,1.514-9.931
					c0.75-1.08,1.79-2.637,2.96-4.117c0.429-0.555,0.882-1.099,1.332-1.609c1.384-1.534,2.829-2.714,4.099-2.763
					c2.252-0.09,11.15,2.922,15.546,4.685l0.009,0.001c1.049,0.426,1.83,0.778,2.219,0.997c0,0-0.484,0.289-1.294,0.774
					L217.583,398.08z M242.715,393.75c-2.615,0.67-14.87,3.028-14.87,3.028l-3.392,0.068l-0.312-0.66c0,0,13.555-8.843,16.685-9.115
					c3.122-0.273,5.552-0.697,5.936,1.477C247.155,390.733,245.331,393.062,242.715,393.75z"/>
				<path style="fill:#E83D3D;" d="M222.942,396.848c0,0,3.644,4.912,8.397,12.538c4.752,7.625,8.75,15.579,8.75,15.579
					l-2.654,0.006c0,0-9.266-18.334-11.376-21.616c-2.11-3.283-4.974-6.237-4.974-6.237L222.942,396.848z"/>
				<path style="fill:#E83D3D;" d="M222.246,396.073c0,0,3.086,11.222,4.8,20.528c1.714,9.306,2.452,20.328,1.986,22.146
					l-1.652,0.575c0,0-2.087-21.636-2.525-25.861c-0.438-4.225-4.447-17.487-4.447-17.487L222.246,396.073z"/>
			</g>
			<g>
				<path style="fill:#353330;" d="M137.466,430.634c-0.063-0.008-0.122-0.052-0.176-0.136c-0.143-0.196-0.235-0.479-0.275-0.849
					c-0.04-0.37-0.049-0.755-0.027-1.156c0.021-0.401,0.056-0.746,0.102-1.035c-0.131,0.023-0.274,0.041-0.429,0.055
					c-0.155,0.013-0.318,0.03-0.486,0.049c-0.338,0.037-0.682,0.076-1.033,0.119c-0.351,0.042-0.662,0.076-0.934,0.101
					c-0.272,0.026-0.466,0.038-0.581,0.038c-0.281-0.008-0.607-0.014-0.978-0.019c-0.371-0.005-0.715-0.026-1.03-0.063
					c-0.379-0.045-0.653-0.115-0.821-0.212c-0.159-0.07-0.223-0.225-0.195-0.465c0.024-0.202,0.102-0.408,0.236-0.616
					c0.133-0.209,0.268-0.349,0.405-0.423c0.136-0.074,0.293-0.1,0.47-0.079c0.025,0.003,0.057,0.007,0.095,0.011
					c0.038,0.004,0.075,0.015,0.111,0.032c0.1,0.025,0.196,0.052,0.288,0.082c0.093,0.03,0.182,0.057,0.269,0.08
					c0.073,0.034,0.262,0.085,0.568,0.153c0.306,0.068,0.64,0.139,1.003,0.214c0.362,0.075,0.688,0.142,0.975,0.201
					c0.288,0.059,0.451,0.092,0.488,0.096c0.177,0.021,0.409,0.038,0.695,0.053c0.286,0.014,0.609,0.024,0.967,0.027
					c0.072-0.286,0.169-0.592,0.29-0.917c0.122-0.325,0.261-0.664,0.418-1.017c0.342-0.729,0.742-1.492,1.201-2.29
					c0.459-0.798,0.959-1.594,1.501-2.388c0.264-0.392,0.519-0.765,0.766-1.121c0.246-0.355,0.491-0.692,0.733-1.009
					c0.472-0.636,0.905-1.187,1.3-1.653c0.394-0.466,0.692-0.79,0.893-0.971c0.127-0.1,0.245-0.182,0.356-0.246
					c-0.281-0.007-0.61,0.012-0.987,0.057c-1.107,0.152-2.129,0.454-3.066,0.908c-0.516,0.247-0.966,0.533-1.35,0.86
					c-0.467,0.381-0.826,0.787-1.075,1.218c-0.25,0.432-0.402,0.882-0.457,1.35c-0.015,0.126-0.012,0.264,0.009,0.414
					c0.021,0.15,0.11,0.266,0.266,0.348c0.084,0.048,0.122,0.111,0.113,0.186c-0.012,0.101-0.075,0.145-0.188,0.132
					c-0.164-0.019-0.373-0.101-0.624-0.246c-0.252-0.145-0.465-0.352-0.638-0.622c-0.173-0.27-0.238-0.595-0.193-0.974
					c0.073-0.619,0.302-1.149,0.687-1.591c0.737-0.823,1.788-1.423,3.152-1.801c0.304-0.079,0.601-0.154,0.891-0.222
					c0.29-0.068,0.578-0.124,0.865-0.167c0.458-0.087,0.898-0.15,1.319-0.19c0.421-0.04,0.714-0.057,0.88-0.05
					c0.115,0.001,0.227,0.001,0.336,0.001c0.109,0,0.208-0.001,0.298-0.004l0.483-0.02c0.088,0.01,0.155,0.044,0.2,0.1
					c0.181-0.017,0.335-0.018,0.462-0.003c0.455,0.053,0.665,0.232,0.629,0.535c-0.028,0.241-0.211,0.488-0.549,0.743
					c-0.195,0.131-0.435,0.346-0.72,0.646c-0.285,0.299-0.588,0.639-0.908,1.017c-0.32,0.379-0.635,0.768-0.944,1.167
					c-0.31,0.399-0.6,0.775-0.872,1.127c-0.458,0.625-0.941,1.305-1.451,2.039c-0.509,0.735-1.006,1.496-1.489,2.285
					c-0.484,0.789-0.906,1.578-1.268,2.368c0.027-0.009,0.053-0.013,0.078-0.01l0.021-0.017c0.142-0.009,0.268-0.017,0.377-0.023
					c0.109-0.006,0.209-0.005,0.297,0.006c0.215,0.025,0.318,0.076,0.309,0.152c-0.006,0.05-0.094,0.117-0.264,0.199
					c-0.17,0.082-0.415,0.124-0.735,0.125l-0.289,0.004c-0.34,0.818-0.565,1.593-0.677,2.322l-0.02,0.171
					c-0.033,0.278-0.009,0.46,0.07,0.546c0.034,0.043,0.047,0.089,0.041,0.139C137.643,430.603,137.58,430.647,137.466,430.634z"/>
			</g>
			<g>
				<path style="fill:#353330;" d="M178.671,436.844c-0.265-0.031-0.465-0.154-0.6-0.369c-0.135-0.215-0.184-0.48-0.147-0.796
					c0.066-0.556,0.296-1.067,0.69-1.533c0.395-0.466,0.882-0.886,1.465-1.259c0.582-0.374,1.193-0.699,1.834-0.975
					c0.641-0.277,1.247-0.497,1.817-0.661c0.204-0.322,0.443-0.716,0.716-1.184c0.273-0.467,0.559-0.965,0.858-1.494
					c0.299-0.528,0.582-1.052,0.848-1.572c0.266-0.519,0.482-0.994,0.648-1.423c-0.248,0.368-0.533,0.747-0.855,1.139
					c-0.321,0.392-0.653,0.756-0.993,1.094c-0.341,0.338-0.67,0.607-0.988,0.806c-0.318,0.2-0.61,0.284-0.875,0.253
					c-0.771-0.091-1.103-0.591-0.996-1.501c0.054-0.455,0.196-0.931,0.428-1.429c0.231-0.498,0.502-0.979,0.813-1.442
					c0.31-0.463,0.609-0.876,0.895-1.24c-0.077,0.004-0.154,0.004-0.231,0.001c-0.076-0.002-0.146-0.007-0.21-0.015
					c-0.354-0.042-0.671-0.149-0.952-0.324c-0.281-0.174-0.489-0.391-0.625-0.65c-0.088-0.228-0.129-0.374-0.121-0.437l0.002-0.019
					c0.009-0.076,0.045-0.11,0.108-0.103c0.076,0.009,0.147,0.056,0.214,0.14c0.36,0.53,0.907,0.837,1.64,0.923
					c0.202,0.024,0.407,0.029,0.613,0.015l0.432-0.564c0.169-0.236,0.4-0.459,0.693-0.668c0.18-0.12,0.315-0.174,0.404-0.164
					c0.101,0.012,0.171,0.071,0.21,0.178c0.038,0.107,0.049,0.236,0.031,0.388c-0.028,0.24-0.127,0.507-0.296,0.801
					c-0.169,0.294-0.41,0.513-0.721,0.655c-1.046,1.158-1.77,2.412-2.172,3.761c-0.06,0.185-0.098,0.341-0.113,0.467
					c-0.042,0.354,0.045,0.543,0.26,0.569c0.265,0.031,0.621-0.164,1.068-0.585c0.158-0.148,0.393-0.405,0.706-0.772
					c0.312-0.367,0.646-0.782,1.002-1.247c0.355-0.464,0.682-0.928,0.98-1.393c0.298-0.465,0.511-0.862,0.64-1.193
					c0.046-0.173,0.14-0.294,0.283-0.36c0.142-0.067,0.277-0.092,0.403-0.078c0.114,0.013,0.208,0.053,0.284,0.12
					c0.075,0.067,0.105,0.169,0.089,0.308c-0.019,0.165-0.049,0.337-0.09,0.518c-0.041,0.181-0.098,0.37-0.172,0.566
					c-0.244,0.766-0.625,1.714-1.142,2.844c-0.118,0.242-0.237,0.488-0.356,0.736c-0.119,0.249-0.244,0.493-0.375,0.734
					c-0.215,0.41-0.431,0.802-0.647,1.173c-0.217,0.372-0.406,0.702-0.568,0.99c0.326-0.154,0.633-0.319,0.923-0.497
					c0.29-0.177,0.556-0.373,0.799-0.588c0.155-0.123,0.298-0.244,0.427-0.363c0.13-0.119,0.252-0.236,0.368-0.351
					c0.045-0.058,0.099-0.084,0.163-0.077c0.151,0.018,0.217,0.115,0.196,0.292c-0.01,0.088-0.051,0.161-0.121,0.216
					c-0.16,0.161-0.319,0.315-0.477,0.463c-0.158,0.148-0.323,0.295-0.494,0.441c-0.273,0.25-0.605,0.486-0.996,0.709
					c-0.391,0.223-0.828,0.422-1.309,0.595c-0.362,0.572-0.771,1.184-1.225,1.835c-0.454,0.651-0.953,1.265-1.495,1.842
					c-0.542,0.577-1.111,1.032-1.708,1.366C179.955,436.793,179.328,436.921,178.671,436.844z M178.82,436.227
					c0.202,0.024,0.548-0.134,1.036-0.474c0.209-0.142,0.438-0.32,0.687-0.534c0.249-0.214,0.482-0.421,0.697-0.62
					c0.216-0.199,0.361-0.345,0.436-0.439c0.238-0.28,0.491-0.605,0.759-0.977c0.268-0.372,0.543-0.779,0.826-1.219
					c-0.508,0.183-1.028,0.404-1.558,0.662c-0.53,0.258-1.02,0.553-1.468,0.884c-0.449,0.332-0.82,0.685-1.114,1.06
					c-0.294,0.375-0.465,0.765-0.512,1.169C178.573,436.044,178.644,436.207,178.82,436.227z"/>
				<path style="fill:#353330;" d="M189.031,432.087c-0.468-0.055-0.827-0.296-1.078-0.723c-0.251-0.426-0.342-0.931-0.274-1.512
					c0.057-0.48,0.186-0.926,0.388-1.338c0.401-0.798,0.999-1.528,1.795-2.191c0.565-0.446,1.14-0.791,1.726-1.036
					c0.586-0.245,1.094-0.342,1.523-0.292c0.366,0.043,0.649,0.172,0.848,0.388c0.199,0.216,0.283,0.456,0.251,0.721
					c-0.013,0.114-0.061,0.249-0.144,0.406c0.138,0.029,0.269,0.054,0.395,0.075c0.125,0.021,0.251,0.039,0.378,0.054
					c0.253,0.03,0.504,0.047,0.753,0.05c0.249,0.004,0.491-0.006,0.724-0.03l0.095,0.011c0.164,0.019,0.24,0.086,0.226,0.2
					c-0.01,0.089-0.095,0.155-0.254,0.201c-0.132,0.036-0.344,0.062-0.634,0.079c-0.29,0.017-0.598,0.023-0.924,0.016
					c-0.326-0.007-0.615-0.024-0.868-0.054c-0.089-0.01-0.168-0.02-0.237-0.028c-0.069-0.008-0.129-0.021-0.178-0.04l-0.08,0.029
					c0.102,0.217,0.132,0.509,0.089,0.875c-0.059,0.505-0.244,1.012-0.553,1.52c-0.31,0.508-0.691,0.97-1.143,1.384
					c-0.452,0.415-0.929,0.736-1.43,0.965C189.926,432.048,189.46,432.137,189.031,432.087z M189.277,431.462
					c0.328,0.039,0.665-0.043,1.009-0.246c0.344-0.203,0.672-0.484,0.983-0.845c0.312-0.36,0.586-0.757,0.822-1.191
					c0.237-0.433,0.405-0.856,0.505-1.267c0.021-0.074,0.036-0.146,0.045-0.216c0.008-0.069,0.015-0.129,0.021-0.18
					c0.022-0.19,0.021-0.344-0.003-0.462l-0.038-0.004c-0.16-0.057-0.275-0.112-0.346-0.165c-0.071-0.053-0.139-0.122-0.206-0.207
					l-0.017-0.021c-0.045-0.056-0.068-0.107-0.069-0.152c-0.001-0.045,0.001-0.093,0.007-0.143c0.013-0.114,0.068-0.2,0.165-0.259
					c0.096-0.059,0.206-0.069,0.33-0.028l0.928,0.282c0.125-0.19,0.194-0.342,0.207-0.456c0.03-0.253-0.151-0.402-0.543-0.448
					c-0.341-0.04-0.731,0.09-1.17,0.391c-0.439,0.301-0.869,0.686-1.289,1.155c-0.42,0.47-0.793,0.941-1.118,1.416
					c-0.156,0.238-0.3,0.532-0.43,0.881c-0.131,0.349-0.215,0.689-0.254,1.017c-0.036,0.303-0.018,0.565,0.052,0.784
					C188.939,431.317,189.075,431.438,189.277,431.462z"/>
				<path style="fill:#353330;" d="M197.467,433.06c-0.543-0.064-0.776-0.431-0.697-1.101c0.055-0.467,0.261-1.077,0.619-1.83
					c-0.28,0.313-0.589,0.623-0.926,0.929c-0.337,0.306-0.664,0.556-0.982,0.749c-0.318,0.193-0.602,0.275-0.855,0.246
					c-0.392-0.046-0.645-0.21-0.758-0.493c-0.114-0.282-0.152-0.588-0.113-0.916c0.025-0.215,0.065-0.421,0.121-0.62
					c0.055-0.198,0.117-0.37,0.186-0.516c0.317-0.628,0.701-1.275,1.151-1.94c0.45-0.664,0.934-1.303,1.455-1.914
					c0.52-0.611,1.03-1.131,1.529-1.559c0.367-0.29,0.646-0.424,0.835-0.402c0.126,0.015,0.182,0.092,0.165,0.231
					c-0.012,0.101-0.073,0.238-0.183,0.411c-0.11,0.173-0.266,0.356-0.468,0.55c-0.158,0.148-0.383,0.426-0.674,0.833
					c-0.291,0.408-0.605,0.867-0.94,1.379c-0.336,0.511-0.659,1.024-0.969,1.539c-0.31,0.514-0.571,0.964-0.783,1.349
					c-0.256,0.431-0.4,0.786-0.433,1.064c-0.028,0.24,0.033,0.369,0.185,0.387c0.227,0.027,0.571-0.176,1.033-0.609
					c0.116-0.114,0.286-0.286,0.512-0.516c0.226-0.229,0.467-0.483,0.724-0.76c0.257-0.277,0.504-0.552,0.741-0.826
					c0.237-0.273,0.424-0.504,0.562-0.693l0.527-0.726c0.08-0.132,0.223-0.233,0.43-0.305c0.207-0.072,0.411-0.096,0.614-0.072
					c0.177,0.021,0.255,0.12,0.234,0.297c-0.018,0.152-0.064,0.3-0.139,0.445c-0.075,0.145-0.173,0.3-0.295,0.465
					c-0.213,0.282-0.435,0.618-0.666,1.007c-0.232,0.389-0.433,0.766-0.604,1.13c-0.171,0.365-0.29,0.664-0.356,0.9
					c-0.04,0.124-0.073,0.238-0.098,0.344c-0.025,0.106-0.044,0.21-0.056,0.31c-0.013,0.114-0.017,0.197-0.01,0.248
					c0.012,0.117,0.043,0.178,0.094,0.184c0.05,0.006,0.103-0.007,0.158-0.039c0.242-0.1,0.51-0.248,0.802-0.444
					c0.292-0.196,0.611-0.453,0.955-0.771c0.155-0.123,0.295-0.244,0.418-0.364c0.123-0.12,0.242-0.237,0.359-0.352
					c0.045-0.058,0.106-0.084,0.182-0.075c0.152,0.018,0.217,0.115,0.196,0.292c-0.009,0.076-0.056,0.147-0.14,0.214
					c-0.146,0.15-0.301,0.298-0.466,0.445c-0.165,0.147-0.327,0.301-0.487,0.461c-0.315,0.283-0.649,0.565-1.002,0.843
					c-0.268,0.212-0.556,0.37-0.863,0.475C197.981,433.05,197.707,433.088,197.467,433.06z"/>
			</g>
			<path style="fill:#E83D3D;" d="M174.577,417.859c0.407-5.949-7.502-3.369-10.362,2.291c0,0-5.1-10.107-8.291-5.363
				c-3.191,4.744,1.799,12.059,4.158,14.384c2.359,2.325,3.199,3.887,4.676,3.768C166.235,432.82,174.169,423.808,174.577,417.859z"
				/>
		</g>
		<path style="fill:#F2D383;" d="M306.638,316.181c-8.533-0.284-15.603,3.878-15.603,3.878s3.042-2.993,5.572-4.983
			s9.363-7.565,9.641-10.383c0.279-2.818-5.191-8.311-12.503-5.158s-14.717,15.975-14.717,15.975s3.575-6.211,5.391-12.238
			c1.816-6.026-0.909-9.881-3.393-12.524c-2.485-2.643-6.262-1.471-11.583,3.514c-5.321,4.985-4.993,22.92-4.993,22.92
			s-0.731-2.223-1.204-5.25c-0.473-3.027-6.604-17.995-10.37-18.032c-3.765-0.037-6.547,1.951-8.882,9.786
			c-2.336,7.835,8.381,15.998,8.381,15.998s-6.986-4.5-13.244-6.374c-6.258-1.874-14.552-0.947-18.598,2.036
			c-4.046,2.983,3.171,9.5,12.95,10.804c9.779,1.304,19.299,3.411,19.299,3.411c3.248,1.643,26.612,0.057,29.632-0.72
			c3.021-0.777,15.549,1.763,20.07,1.605c4.521-0.158,14.594-3.283,15.88-6.494C319.65,320.74,315.172,316.465,306.638,316.181z"/>
		<g>
			<path style="fill:#E83D3D;" d="M291.973,296.652c0,0,18.231-5.4,24.412,11.135c5.335,14.273-29.708,21.838-49.089,21.025
				c0,0-4.148-0.493-5.861-9.497c-1.713-9.004-2.007-47.027,12.774-45.981C298.276,275.037,291.973,296.652,291.973,296.652z"/>
			<path style="fill:#FFFFFF;" d="M310.526,304.142c-1.973,0.235-0.89,2.655-1.217,4.969c-0.328,2.314-3.864,5.997-2.619,6.781
				c1.245,0.784,3.158-0.184,5.454-3.692C314.439,308.692,310.526,304.142,310.526,304.142z"/>
		</g>
		<g>
			<path style="fill:#E83D3D;" d="M241.373,283.05c-18.271,1.785-15.174,16.027-15.174,16.027s-18.093-13.803-24.626,6.057
				c-3.826,11.629,34.008,26.295,38.134,24.793c4.126-1.503,6.602-10.456,8.073-17.469
				C249.252,305.444,253.557,281.86,241.373,283.05z"/>
			<path style="fill:#FFFFFF;" d="M242.675,288.232c-2.58-2.69-6.605-1.71-6.605-1.71s0.317,1.781,1.98,2.272
				c1.662,0.491,2.761,3.708,4.214,4.499C243.718,294.083,245.254,290.922,242.675,288.232z"/>
		</g>
		<path style="fill:#E59EA5;" d="M318.683,342.95c0.276-4.177-4.396-4.02-7.023,0.468c-2.627,4.488,1.059,12.19-1.193,25.093
			s-8.799,34.379-5.55,34.594c3.249,0.215,4.791-9.006,9.577-25.005C319.282,362.102,318.683,342.95,318.683,342.95z"/>
	</g>
</g>
</svg>
